<svg width="26" height="26" viewBox="0 0 26 26" fill="none" xmlns="http://www.w3.org/2000/svg">
<path d="M21.9313 23.1111C19.5907 23.1111 17.2783 22.6009 14.9939 21.5804C12.7096 20.5599 10.6312 19.1135 8.75873 17.241C6.88631 15.3686 5.43985 13.2902 4.41938 11.0059C3.39891 8.7215 2.88867 6.40905 2.88867 4.06852C2.88867 3.73148 3.00102 3.45062 3.22571 3.22593C3.4504 3.00123 3.73126 2.88889 4.0683 2.88889H8.6183C8.88044 2.88889 9.11449 2.97783 9.32046 3.15571C9.52643 3.33359 9.64814 3.54424 9.68559 3.78765L10.4158 7.71975C10.4533 8.01934 10.4439 8.27212 10.3877 8.47809C10.3316 8.68405 10.2286 8.86193 10.0788 9.01173L7.35441 11.7642C7.7289 12.457 8.1736 13.1264 8.68852 13.7724C9.20343 14.4184 9.76984 15.0409 10.3877 15.6401C10.9682 16.2206 11.5767 16.7589 12.2134 17.2551C12.85 17.7513 13.5241 18.2053 14.2356 18.6173L16.8757 15.9772C17.0442 15.8086 17.2642 15.6823 17.5357 15.598C17.8072 15.5137 18.0741 15.4903 18.3362 15.5278L22.2121 16.3142C22.4743 16.3891 22.6896 16.5248 22.8581 16.7214C23.0266 16.9181 23.1109 17.1381 23.1109 17.3815V21.9315C23.1109 22.2685 22.9985 22.5494 22.7739 22.7741C22.5492 22.9988 22.2683 23.1111 21.9313 23.1111ZM6.28713 9.62963L8.14083 7.77593L7.66336 5.1358H5.16367C5.25729 5.9035 5.38836 6.66183 5.55688 7.4108C5.7254 8.15977 5.96882 8.89938 6.28713 9.62963ZM16.3421 19.6846C17.0723 20.0029 17.8166 20.2557 18.5749 20.4429C19.3333 20.6301 20.0963 20.7519 20.864 20.808V18.3364L18.2239 17.8028L16.3421 19.6846Z" fill="#F7931A"/>
</svg>
