<svg width="16" height="18" viewBox="0 0 16 18" fill="none" xmlns="http://www.w3.org/2000/svg">
<path d="M9.9401 11.4992C9.9098 11.2265 9.81889 11.0295 9.63708 10.8477C9.29619 10.4917 8.69773 10.2568 7.99321 10.2568C7.2887 10.2568 6.69024 10.4841 6.34934 10.8477C6.17511 11.0371 6.07663 11.2265 6.04632 11.4992C5.98572 12.0295 6.0236 12.484 6.0842 13.2188C6.14481 13.9158 6.25844 14.8476 6.40237 15.7869C6.50843 16.4611 6.59176 16.8247 6.66751 17.0823C6.79629 17.5065 7.25839 17.8702 7.99321 17.8702C8.72803 17.8702 9.19771 17.499 9.31891 17.0823C9.39467 16.8247 9.478 16.4611 9.58405 15.7869C9.72799 14.84 9.84162 13.9158 9.90222 13.2188C9.9704 12.484 10.0007 12.0295 9.9401 11.4992Z" fill="#AA38D6"/>
<path d="M9.85602 7.63504C9.85602 8.6653 9.02272 9.4986 7.99246 9.4986C6.9622 9.4986 6.12891 8.6653 6.12891 7.63504C6.12891 6.60478 6.9622 5.77148 7.99246 5.77148C9.02272 5.77148 9.85602 6.61236 9.85602 7.63504Z" fill="#AA38D6"/>
<path d="M7.97004 0.294934C3.62173 0.310085 0.0612799 3.84024 0.000676406 8.18854C-0.0447762 11.7111 2.20513 14.7261 5.34894 15.8322C5.42469 15.8625 5.50044 15.7943 5.49287 15.7185C5.45499 15.4458 5.40954 15.1731 5.37924 14.9004C5.36409 14.8019 5.30348 14.7261 5.22015 14.6807C2.73541 13.5974 1.00063 11.1051 1.03094 8.21884C1.06881 4.43112 4.15959 1.34792 7.93973 1.31762C11.8108 1.28732 14.9697 4.42355 14.9697 8.28702C14.9697 11.143 13.2425 13.5974 10.7805 14.6807C10.6896 14.7186 10.629 14.8019 10.6214 14.9004C10.5836 15.1731 10.5457 15.4458 10.5078 15.7185C10.4927 15.8019 10.576 15.8625 10.6517 15.8322C13.7652 14.7413 16 11.7717 16 8.28702C15.9848 3.87811 12.3865 0.287358 7.97004 0.294934Z" fill="#AA38D6"/>
<path d="M7.78866 2.9467C4.95545 3.05276 2.68282 5.39357 2.64494 8.22678C2.62221 10.0903 3.55399 11.7418 4.98575 12.719C5.05393 12.7645 5.15241 12.7114 5.15241 12.6281C5.12968 12.3024 5.12968 12.0145 5.14483 11.7115C5.15241 11.613 5.11453 11.5221 5.03878 11.4539C4.1676 10.6358 3.63732 9.46915 3.66762 8.18133C3.72823 5.9087 5.55391 4.06029 7.82654 3.96938C10.2961 3.8709 12.3263 5.85567 12.3263 8.29496C12.3263 9.53733 11.7961 10.6585 10.9552 11.4539C10.887 11.5221 10.8491 11.613 10.8491 11.7115C10.8643 12.0069 10.8567 12.2948 10.8416 12.6205C10.834 12.7039 10.9325 12.7645 11.0082 12.7114C12.4173 11.7494 13.349 10.1206 13.349 8.28738C13.3566 5.27236 10.834 2.82549 7.78866 2.9467Z" fill="#AA38D6"/>
</svg>
