<svg width="125" height="113" viewBox="0 0 125 113" fill="none" xmlns="http://www.w3.org/2000/svg">
<path d="M0 35.8922C0.281617 34.5638 0.508214 33.2354 0.857807 31.9236C3.74519 21.2101 12.9997 13.7146 23.8792 13.605C37.5134 13.4655 51.1475 13.5519 64.7817 13.5718C67.7111 13.5718 69.9026 15.8035 69.8702 18.5998C69.8378 21.396 67.6852 23.4982 64.691 23.5016C51.3417 23.5016 37.9903 23.5016 24.6367 23.5016C16.965 23.5016 11.0219 28.7554 9.85014 36.5132C9.74752 37.2935 9.70315 38.0806 9.71742 38.8678C9.71742 58.382 9.71095 77.8983 9.698 97.4169C9.698 99.8014 10.4619 101.674 12.6469 102.644C14.7736 103.591 16.6381 102.953 18.3084 101.372C20.6552 99.1505 23.0861 97.0217 25.4297 94.8033C26.6204 93.6596 28.2051 93.048 29.8352 93.103C46.6675 93.1229 63.4998 93.1229 80.3321 93.103C87.4729 93.103 93.1117 88.5565 94.7755 81.4994C95.0253 80.3694 95.1513 79.2143 95.151 78.0555C95.1996 74.4954 95.151 70.9287 95.1737 67.3652C95.1737 64.3431 97.2324 62.1081 99.9871 62.0815C102.742 62.055 104.891 64.2966 104.868 67.2922C104.836 72.0113 105.017 76.757 104.597 81.4429C103.645 92.0701 94.6849 101.369 84.3751 102.75C82.8507 102.949 81.3153 103.047 79.7786 103.043C64.0814 103.063 48.3842 103.063 32.687 103.043C32.1521 103.01 31.6164 103.092 31.1145 103.285C30.6127 103.478 30.1559 103.776 29.7737 104.162C27.8736 106.022 25.9185 107.815 23.8857 109.535C21.9292 111.208 19.5794 112.326 17.0706 112.776C14.5618 113.227 11.9817 112.994 9.58772 112.103C7.19373 111.211 5.06951 109.69 3.42695 107.693C1.78439 105.696 0.680915 103.292 0.226592 100.721C0.168131 100.487 0.0923797 100.257 0 100.034V35.8922ZM124.3 13.0172C124.235 12.9175 124.135 12.8246 124.116 12.715C123.041 6.61098 119.648 2.41988 113.867 0.683002C108.147 -1.04724 103.13 0.563444 98.9059 4.9073C87.3952 16.7345 75.8694 28.5417 64.3285 40.329C56.9514 47.8776 53.0638 56.9572 52.7984 67.6542C52.7142 71.1346 54.7406 73.2799 58.1491 73.2202C68.4136 73.0375 77.2279 69.235 84.4981 61.8491C96.3541 49.7894 108.159 37.6811 119.914 25.524C121.299 24.0894 122.283 22.203 123.235 20.3964C123.808 19.3005 123.957 17.9721 124.3 16.7433V13.0172ZM64.4159 57.7609C65.7702 54.1067 67.8667 50.7897 70.5661 48.0304C82.3941 35.8977 94.2295 23.7739 106.073 11.6589C108.17 9.51353 111.145 9.41389 113.116 11.3799C115.136 13.3991 115.094 16.461 112.932 18.6861C101.104 30.8188 89.264 42.9382 77.4124 55.0444C73.4624 59.0829 68.3995 61.7803 62.9075 62.7723C63.448 60.9424 63.843 59.3185 64.4256 57.7609H64.4159ZM38.7369 53.334C41.5499 53.2975 43.6442 51.2186 43.6863 48.4754C43.6998 47.8119 43.5832 47.1524 43.3434 46.536C43.1037 45.9196 42.7457 45.3589 42.2908 44.8871C41.8358 44.4154 41.2931 44.0422 40.6948 43.7897C40.0966 43.5373 39.455 43.4107 38.8081 43.4176C34.0023 43.3578 29.1943 43.3578 24.3842 43.4176C21.5356 43.4441 19.4186 45.6559 19.4348 48.4289C19.451 51.202 21.568 53.3075 24.4586 53.3407C26.841 53.3673 29.2235 53.3407 31.6091 53.3407C33.9948 53.3407 36.361 53.3639 38.7466 53.334H38.7369ZM38.5362 73.2301C41.5272 73.2069 43.6669 71.1578 43.6863 68.3217C43.7057 65.4856 41.5596 63.3203 38.6204 63.3004C33.8944 63.2627 29.1673 63.2627 24.4392 63.3004C21.5259 63.3236 19.3733 65.5387 19.4154 68.3615C19.4575 71.1844 21.5712 73.2002 24.478 73.2301C26.8605 73.2501 29.2461 73.2301 31.6285 73.2301C33.9527 73.2301 36.2445 73.2467 38.546 73.2301H38.5362Z" fill="#2B2B2B"/>
</svg>
