<svg width="18" height="18" viewBox="0 0 18 18" fill="none" xmlns="http://www.w3.org/2000/svg">
<path d="M9 8.1C11.4853 8.1 13.5 10.1147 13.5 12.6V18H11.7V12.6C11.7 11.1621 10.576 9.98667 9.15867 9.90459L9 9.9C7.56207 9.9 6.38671 11.024 6.30458 12.4413L6.3 12.6V18H4.5V12.6C4.5 10.1147 6.51472 8.1 9 8.1ZM3.15 10.8C3.40096 10.8 3.64508 10.8293 3.87909 10.8848C3.72782 11.3346 3.63486 11.8098 3.60806 12.3024L3.6 12.6L3.60063 12.677C3.49881 12.641 3.39139 12.6168 3.28001 12.6062L3.15 12.6C2.44827 12.6 1.87159 13.1354 1.80618 13.8199L1.8 13.95V18H0V13.95C0 12.2103 1.4103 10.8 3.15 10.8ZM14.85 10.8C16.5897 10.8 18 12.2103 18 13.95V18H16.2V13.95C16.2 13.2483 15.6646 12.6716 14.9801 12.6062L14.85 12.6C14.6923 12.6 14.5409 12.627 14.4003 12.6767L14.4 12.6C14.4 12.0009 14.3024 11.4246 14.1223 10.886C14.3549 10.8293 14.599 10.8 14.85 10.8ZM3.15 5.4C4.39264 5.4 5.4 6.40736 5.4 7.65C5.4 8.89263 4.39264 9.9 3.15 9.9C1.90736 9.9 0.9 8.89263 0.9 7.65C0.9 6.40736 1.90736 5.4 3.15 5.4ZM14.85 5.4C16.0926 5.4 17.1 6.40736 17.1 7.65C17.1 8.89263 16.0926 9.9 14.85 9.9C13.6074 9.9 12.6 8.89263 12.6 7.65C12.6 6.40736 13.6074 5.4 14.85 5.4ZM3.15 7.2C2.90147 7.2 2.7 7.40151 2.7 7.65C2.7 7.89849 2.90147 8.1 3.15 8.1C3.39853 8.1 3.6 7.89849 3.6 7.65C3.6 7.40151 3.39853 7.2 3.15 7.2ZM14.85 7.2C14.6015 7.2 14.4 7.40151 14.4 7.65C14.4 7.89849 14.6015 8.1 14.85 8.1C15.0985 8.1 15.3 7.89849 15.3 7.65C15.3 7.40151 15.0985 7.2 14.85 7.2ZM9 0C10.9882 0 12.6 1.61177 12.6 3.6C12.6 5.58823 10.9882 7.2 9 7.2C7.01177 7.2 5.4 5.58823 5.4 3.6C5.4 1.61177 7.01177 0 9 0ZM9 1.8C8.00586 1.8 7.2 2.60589 7.2 3.6C7.2 4.59411 8.00586 5.4 9 5.4C9.99414 5.4 10.8 4.59411 10.8 3.6C10.8 2.60589 9.99414 1.8 9 1.8Z" fill="#999999"/>
</svg>
