<svg width="14" height="15" viewBox="0 0 14 15" fill="none" xmlns="http://www.w3.org/2000/svg">
<path fill-rule="evenodd" clip-rule="evenodd" d="M0.182771 13.4344C-0.0609237 13.6781 -0.0609237 14.0736 0.182771 14.3172C0.426466 14.5609 0.82124 14.5609 1.06493 14.3172L6.99991 8.38177L12.9349 14.3172C13.1786 14.5602 13.5741 14.5602 13.8178 14.3172C14.0608 14.0736 14.0608 13.6781 13.8178 13.4344L7.88206 7.49965L13.8178 1.56489C14.0608 1.32121 14.0608 0.92645 13.8178 0.682764C13.5741 0.439079 13.1786 0.439079 12.9349 0.682764L6.99991 6.61752L1.06493 0.682764C0.82124 0.439079 0.426466 0.439079 0.182771 0.682764C-0.0609237 0.92645 -0.0609237 1.32121 0.182771 1.56489L6.11775 7.49965L0.182771 13.4344Z" fill="#F6911D"/>
</svg>
