<svg width="22" height="20" viewBox="0 0 22 20" fill="none" xmlns="http://www.w3.org/2000/svg">
<path d="M0 6.3526C0.0498438 6.11748 0.0899493 5.88237 0.151824 5.65019C0.662866 3.75399 2.30083 2.42736 4.22641 2.40796C6.63953 2.38328 9.05266 2.39856 11.4658 2.40209C11.9843 2.40209 12.3721 2.79708 12.3664 3.29199C12.3607 3.78691 11.9797 4.15898 11.4497 4.15957C9.08703 4.15957 6.72394 4.15957 4.36047 4.15957C3.00266 4.15957 1.95078 5.08945 1.74339 6.46251C1.72522 6.60061 1.71737 6.73993 1.7199 6.87926C1.7199 10.3331 1.71875 13.7873 1.71646 17.2419C1.71646 17.664 1.85167 17.9955 2.23839 18.1671C2.61479 18.3346 2.94479 18.2218 3.24042 17.942C3.65578 17.5488 4.08604 17.172 4.50083 16.7793C4.71157 16.5769 4.99205 16.4687 5.28057 16.4784C8.25974 16.4819 11.2389 16.4819 14.2181 16.4784C15.4819 16.4784 16.4799 15.6737 16.7744 14.4247C16.8186 14.2247 16.8409 14.0202 16.8409 13.8151C16.8495 13.185 16.8409 12.5537 16.8449 11.9231C16.8449 11.3882 17.2093 10.9926 17.6968 10.9879C18.1844 10.9832 18.5648 11.3799 18.5608 11.9101C18.5551 12.7454 18.5871 13.5853 18.5127 14.4147C18.3442 16.2956 16.7584 17.9414 14.9336 18.1859C14.6638 18.2211 14.3921 18.2384 14.1201 18.2376C11.3418 18.2412 8.56358 18.2412 5.78531 18.2376C5.69064 18.2318 5.59582 18.2464 5.50699 18.2805C5.41817 18.3146 5.33732 18.3675 5.26969 18.4357C4.93339 18.7649 4.58734 19.0823 4.22755 19.3868C3.88128 19.6829 3.46538 19.8807 3.02135 19.9604C2.57731 20.0401 2.12066 19.999 1.69694 19.8412C1.27323 19.6833 0.897259 19.4142 0.60654 19.0608C0.315822 18.7073 0.120516 18.2818 0.0401049 17.8268C0.0297577 17.7852 0.0163504 17.7446 0 17.7051V6.3526ZM22 2.30393C21.9885 2.28629 21.9708 2.26983 21.9673 2.25044C21.7771 1.17008 21.1767 0.428298 20.1535 0.120885C19.1411 -0.185351 18.2531 0.0997247 17.5055 0.86855C15.4682 2.96185 13.4282 5.05163 11.3856 7.13788C10.0799 8.47392 9.39182 10.0809 9.34484 11.9742C9.32995 12.5902 9.68859 12.9699 10.2919 12.9593C12.1086 12.927 13.6686 12.254 14.9554 10.9467C17.0538 8.81229 19.1432 6.66922 21.2237 4.51753C21.4689 4.26361 21.6431 3.92974 21.8115 3.60999C21.9129 3.41602 21.9393 3.1809 22 2.96342V2.30393ZM11.401 10.2232C11.6407 9.5764 12.0118 8.98934 12.4896 8.50096C14.583 6.35358 16.6778 4.20777 18.7739 2.06352C19.1452 1.68381 19.6717 1.66618 20.0206 2.01415C20.3781 2.37152 20.3706 2.91346 19.9879 3.30728C17.8945 5.45466 15.7989 7.59969 13.7013 9.74236C13.0022 10.4571 12.1061 10.9346 11.1341 11.1101C11.2297 10.7863 11.2996 10.4988 11.4028 10.2232H11.401ZM6.85609 9.43965C7.35396 9.43319 7.72464 9.06524 7.73208 8.57972C7.73447 8.46229 7.71384 8.34556 7.67141 8.23646C7.62898 8.12736 7.56562 8.02812 7.48509 7.94462C7.40456 7.86113 7.30851 7.79508 7.20262 7.7504C7.09674 7.70572 6.98318 7.68332 6.8687 7.68452C6.01811 7.67394 5.16714 7.67394 4.31578 7.68452C3.81162 7.68923 3.43693 8.08069 3.43979 8.57149C3.44266 9.0623 3.81735 9.43495 4.32896 9.44083C4.75063 9.44553 5.17229 9.44083 5.59453 9.44083C6.01677 9.44083 6.43557 9.44494 6.85781 9.43965H6.85609ZM6.82057 12.9611C7.34995 12.957 7.72865 12.5943 7.73208 12.0923C7.73552 11.5904 7.35568 11.2071 6.83547 11.2036C5.99901 11.1969 5.16236 11.1969 4.32552 11.2036C3.8099 11.2077 3.42891 11.5998 3.43635 12.0994C3.4438 12.599 3.81792 12.9558 4.3324 12.9611C4.75406 12.9646 5.1763 12.9611 5.59797 12.9611C6.00932 12.9611 6.41495 12.964 6.82229 12.9611H6.82057Z" fill="#999999"/>
</svg>
