<svg width="40" height="40" viewBox="0 0 40 40" fill="none" xmlns="http://www.w3.org/2000/svg">
<rect x="0.5" y="0.5" width="39" height="39" rx="4.5" fill="#0A090F" stroke="#28272D"/>
<path d="M22.1469 25.9989C21.9213 25.9992 21.7047 25.9047 21.5447 25.7362L16 19.8901L21.5338 13.831C21.6116 13.7457 21.7046 13.6776 21.8073 13.6303C21.9101 13.5831 22.0206 13.5578 22.1326 13.5558C22.2446 13.5538 22.3559 13.5752 22.4601 13.6188C22.5643 13.6623 22.6593 13.7272 22.7398 13.8096C22.8204 13.8921 22.8848 13.9905 22.9294 14.0993C22.974 14.2081 22.9979 14.3252 22.9997 14.4438C23.0016 14.5624 22.9814 14.6802 22.9403 14.7905C22.8992 14.9009 22.838 15.0016 22.7601 15.0868L18.3958 19.8658L22.7492 24.4561C22.8687 24.5824 22.9503 24.7434 22.9834 24.9188C23.0165 25.0941 22.9998 25.276 22.9353 25.4413C22.8709 25.6065 22.7615 25.7479 22.6212 25.8473C22.4809 25.9468 22.3158 26 22.1469 26.0001V25.9989Z" fill="#999999"/>
</svg>
