<svg width="40" height="40" viewBox="0 0 40 40" fill="none" xmlns="http://www.w3.org/2000/svg">
<rect x="0.5" y="0.5" width="39" height="39" rx="4.5" fill="#0A090F" stroke="#28272D"/>
<path d="M16.8531 13.5567C17.0787 13.5564 17.2953 13.6509 17.4553 13.8195L23 19.6656L17.4662 25.7246C17.3884 25.8099 17.2954 25.8781 17.1927 25.9253C17.0899 25.9726 16.9794 25.9979 16.8674 25.9999C16.7554 26.0019 16.6441 25.9805 16.5399 25.9369C16.4357 25.8934 16.3407 25.8285 16.2602 25.7461C16.1796 25.6636 16.1152 25.5652 16.0706 25.4563C16.026 25.3475 16.0021 25.2305 16.0003 25.1119C15.9984 24.9933 16.0186 24.8755 16.0597 24.7651C16.1008 24.6548 16.162 24.5541 16.2399 24.4688L20.6042 19.6899L16.2508 15.0996C16.1313 14.9733 16.0497 14.8123 16.0166 14.6369C15.9835 14.4615 16.0002 14.2797 16.0647 14.1144C16.1291 13.9491 16.2385 13.8078 16.3788 13.7083C16.5191 13.6088 16.6842 13.5557 16.8531 13.5556V13.5567Z" fill="#999999"/>
</svg>
