<svg width="103" height="103" viewBox="0 0 103 103" fill="none" xmlns="http://www.w3.org/2000/svg">
<path d="M51.1044 33.78C55.0136 33.7815 58.8021 32.4261 61.8232 29.9453C64.8443 27.4644 66.9107 24.0119 67.6696 20.1771C68.4286 16.3423 67.833 12.363 65.9846 8.9184C64.1361 5.47384 61.1494 2.77761 57.5344 1.29C57.3085 1.19676 57.0665 1.14892 56.8221 1.14922C56.5778 1.14952 56.3358 1.19794 56.1102 1.29173C55.8845 1.38552 55.6796 1.52283 55.507 1.69583C55.3344 1.86883 55.1976 2.07413 55.1044 2.3C54.9161 2.75617 54.9167 3.26847 55.1061 3.72418C55.2955 4.17989 55.6582 4.5417 56.1144 4.73C59.1371 5.98034 61.5864 8.31086 62.9853 11.2678C64.3842 14.2247 64.6327 17.5965 63.6822 20.7265C62.7318 23.8566 60.6505 26.5209 57.8436 28.2007C55.0368 29.8806 51.7052 30.4557 48.4975 29.8142C45.2899 29.1727 42.4358 27.3604 40.4909 24.7302C38.5461 22.1 37.6496 18.8401 37.9762 15.5853C38.3027 12.3305 39.8288 9.31366 42.2574 7.12222C44.686 4.93077 47.8432 3.72156 51.1144 3.73C51.5854 3.69548 52.0259 3.48401 52.3475 3.13806C52.669 2.7921 52.8477 2.3373 52.8477 1.865C52.8477 1.3927 52.669 0.937895 52.3475 0.591942C52.0259 0.245988 51.5854 0.0345148 51.1144 0C48.8977 -3.30316e-08 46.7027 0.436615 44.6547 1.28491C42.6067 2.13321 40.7459 3.37658 39.1784 4.94404C37.611 6.51149 36.3676 8.37233 35.5193 10.4203C34.671 12.4683 34.2344 14.6633 34.2344 16.88C34.2344 19.0967 34.671 21.2917 35.5193 23.3397C36.3676 25.3877 37.611 27.2485 39.1784 28.816C40.7459 30.3834 42.6067 31.6268 44.6547 32.4751C46.7027 33.3234 48.8977 33.76 51.1144 33.76L51.1044 33.78Z" fill="#2B2B2B"/>
<path d="M101.676 46.7405C101.329 46.3911 100.858 46.1933 100.366 46.1905C100.12 46.1906 99.8773 46.2392 99.6507 46.3336C99.4242 46.428 99.2185 46.5663 99.0457 46.7405L93.6957 52.0805L71.1957 29.1405L97.1957 3.20051C97.4529 2.93851 97.6273 2.60659 97.6971 2.24613C97.767 1.88568 97.7292 1.51264 97.5884 1.17353C97.4476 0.834431 97.2102 0.544268 96.9056 0.339226C96.601 0.134184 96.2428 0.0233374 95.8757 0.0205078C95.3834 0.0232723 94.9124 0.221051 94.5657 0.570507L62.3257 32.7405C61.5838 33.4696 60.9981 34.3421 60.6044 35.3048C60.2107 36.2676 60.0172 37.3005 60.0357 38.3405H58.4357C56.9015 38.3399 55.3844 38.6629 53.9835 39.2884C52.5826 39.9139 51.3294 40.8278 50.3057 41.9705L50.2057 42.0805C47.6215 40.8362 44.8189 40.1092 41.9557 39.9405C42.2338 38.6533 42.1805 37.3165 41.801 36.0555C41.4215 34.7945 40.728 33.6504 39.7857 32.7305L7.25569 0.730507C6.90208 0.38778 6.42812 0.197476 5.93569 0.200506C5.69178 0.200779 5.45036 0.249544 5.22546 0.343966C5.00057 0.438387 4.79669 0.57658 4.62569 0.750507C4.45154 0.923397 4.31332 1.12904 4.21899 1.35559C4.12467 1.58213 4.07611 1.82511 4.07611 2.07051C4.07611 2.31591 4.12467 2.55888 4.21899 2.78543C4.31332 3.01197 4.45154 3.21762 4.62569 3.39051L32.1557 30.4905L12.3857 50.6005C12.0439 50.9547 11.8537 51.4283 11.8557 51.9205C11.8597 52.2884 11.9727 52.6469 12.1805 52.9506C12.3883 53.2543 12.6814 53.4895 13.0229 53.6266C13.3644 53.7636 13.7389 53.7963 14.0989 53.7204C14.459 53.6446 14.7885 53.4636 15.0457 53.2005L34.8057 33.0505L37.1757 35.3805C37.5603 35.7592 37.8657 36.2107 38.0742 36.7085C38.2826 37.2064 38.39 37.7408 38.39 38.2805C38.39 38.8203 38.2826 39.3546 38.0742 39.8525C37.8657 40.3504 37.5603 40.8018 37.1757 41.1805L20.2857 58.0805C19.5192 58.8432 18.482 59.2714 17.4007 59.2714C16.3194 59.2714 15.2821 58.8432 14.5157 58.0805L3.15569 46.7405C2.80901 46.3911 2.33793 46.1933 1.84569 46.1905C1.47939 46.1953 1.12256 46.3075 0.819503 46.5133C0.516442 46.7191 0.280497 47.0094 0.140965 47.3481C0.00143254 47.6868 -0.0355418 48.059 0.0346312 48.4186C0.104804 48.7781 0.279034 49.1091 0.53569 49.3705L11.8757 60.7205C12.6006 61.445 13.4613 62.0193 14.4085 62.4105C15.3557 62.8018 16.3708 63.0023 17.3957 63.0005C17.9675 62.9971 18.5373 62.9334 19.0957 62.8105C19.1378 63.5882 19.2247 64.3628 19.3557 65.1305C18.7256 65.4539 18.1489 65.8721 17.6457 66.3705L14.3857 69.6305C13.7519 70.263 13.2492 71.0144 12.9061 71.8414C12.5631 72.6685 12.3865 73.5551 12.3865 74.4505C12.3865 75.3459 12.5631 76.2325 12.9061 77.0596C13.2492 77.8867 13.7519 78.638 14.3857 79.2705C15.0408 79.9244 15.8215 80.4387 16.6809 80.7825C17.5403 81.1262 18.4604 81.2922 19.3857 81.2705C19.3609 82.1965 19.525 83.1179 19.868 83.9783C20.2111 84.8388 20.7258 85.6204 21.3808 86.2754C22.0358 86.9304 22.8174 87.4451 23.6779 87.7882C24.5384 88.1312 25.4597 88.2953 26.3857 88.2705C26.358 89.1973 26.5201 90.1199 26.8621 90.9817C27.2041 91.8435 27.7187 92.6263 28.3743 93.2819C29.0299 93.9375 29.8127 94.4521 30.6745 94.7941C31.5363 95.1361 32.4589 95.2982 33.3857 95.2705C33.3523 96.632 33.7273 97.9722 34.4623 99.1187C35.1974 100.265 36.2588 101.165 37.51 101.703C38.7611 102.241 40.1446 102.392 41.4823 102.137C42.82 101.881 44.0506 101.231 45.0157 100.271L46.9057 98.3905L48.7857 100.271C50.0658 101.546 51.7989 102.261 53.6057 102.261C55.4124 102.261 57.1456 101.546 58.4257 100.271C59.0819 99.6172 59.5978 98.8367 59.9417 97.9769C60.2857 97.1171 60.4503 96.1962 60.4257 95.2705C61.3525 95.2982 62.2751 95.1361 63.1369 94.7941C63.9987 94.4521 64.7814 93.9375 65.437 93.2819C66.0927 92.6263 66.6073 91.8435 66.9493 90.9817C67.2912 90.1199 67.4534 89.1973 67.4257 88.2705C68.3524 88.2982 69.2751 88.1361 70.1369 87.7941C70.9987 87.4521 71.7814 86.9375 72.437 86.2819C73.0927 85.6263 73.6073 84.8435 73.9493 83.9817C74.2912 83.1199 74.4534 82.1973 74.4257 81.2705C75.7893 81.309 77.133 80.937 78.2827 80.2028C79.4324 79.4687 80.3351 78.4062 80.8739 77.1529C81.4127 75.8997 81.5627 74.5136 81.3045 73.1741C81.0463 71.8347 80.3917 70.6036 79.4257 69.6405L77.9257 68.1505C79.0872 67.227 80.1556 66.192 81.1157 65.0605C81.7323 64.3321 82.3002 63.5637 82.8157 62.7605C83.4495 62.9241 84.1012 63.0081 84.7557 63.0105C85.7816 63.0131 86.7977 62.8121 87.7453 62.419C88.6929 62.0259 89.5529 61.4486 90.2757 60.7205L101.626 49.3805C101.8 49.2085 101.938 49.0037 102.032 48.778C102.126 48.5522 102.174 48.3101 102.174 48.0655C102.174 47.8209 102.126 47.5788 102.032 47.3531C101.938 47.1273 101.8 46.9225 101.626 46.7505L101.676 46.7405ZM91.0657 54.7405L87.6957 58.1005C86.9276 58.8638 85.8886 59.2923 84.8057 59.2923C83.7228 59.2923 82.6838 58.8638 81.9157 58.1005L64.9157 41.1605C64.5356 40.7823 64.234 40.3328 64.0283 39.8377C63.8225 39.3426 63.7165 38.8117 63.7165 38.2755C63.7165 37.7393 63.8225 37.2085 64.0283 36.7134C64.234 36.2183 64.5356 35.7687 64.9157 35.3905L68.5357 31.7705L91.0657 54.7405ZM59.1857 65.9905C59.0115 66.1634 58.8733 66.369 58.779 66.5956C58.6847 66.8221 58.6361 67.0651 58.6361 67.3105C58.6361 67.5559 58.6847 67.7989 58.779 68.0254C58.8733 68.252 59.0115 68.4576 59.1857 68.6305L69.8357 79.2705C70.1238 79.5568 70.3525 79.8972 70.5086 80.2722C70.6646 80.6472 70.7449 81.0493 70.7449 81.4555C70.7449 81.8617 70.6646 82.2638 70.5086 82.6388C70.3525 83.0138 70.1238 83.3542 69.8357 83.6405C69.2549 84.2176 68.4694 84.5415 67.6507 84.5415C66.832 84.5415 66.0465 84.2176 65.4657 83.6405L54.8057 72.9905C54.4627 72.6663 54.0077 72.4872 53.5357 72.4905C53.1685 72.4933 52.8104 72.6042 52.5058 72.8092C52.2012 73.0143 51.9637 73.3044 51.823 73.6435C51.6822 73.9826 51.6444 74.3557 51.7142 74.7161C51.7841 75.0766 51.9585 75.4085 52.2157 75.6705L62.8357 86.2705C63.4128 86.8513 63.7366 87.6368 63.7366 88.4555C63.7366 89.2742 63.4128 90.0597 62.8357 90.6405C62.2532 91.2182 61.4661 91.5423 60.6457 91.5423C59.8253 91.5423 59.0382 91.2182 58.4557 90.6405L47.8057 80.0005C47.4569 79.6504 46.9834 79.4532 46.4892 79.4523C45.9951 79.4513 45.5208 79.6467 45.1707 79.9955C44.8206 80.3443 44.6234 80.8178 44.6225 81.312C44.6215 81.8061 44.8169 82.2804 45.1657 82.6305L55.8257 93.2705C56.4052 93.8513 56.7302 94.6386 56.7293 95.459C56.7283 96.2795 56.4015 97.066 55.8207 97.6455C55.2399 98.225 54.4526 98.55 53.6322 98.5491C52.8117 98.5482 52.0252 98.2213 51.4457 97.6405L49.4457 95.6405C50.0417 94.6028 50.3554 93.4271 50.3557 92.2305C50.3587 91.3361 50.1833 90.45 49.8399 89.6242C49.4965 88.7983 48.992 88.0491 48.3557 87.4205C47.7024 86.7643 46.9219 86.2484 46.0621 85.9045C45.2023 85.5605 44.2814 85.3959 43.3557 85.4205C43.3607 85.3539 43.3607 85.2871 43.3557 85.2205C43.3533 84.3112 43.1692 83.4116 42.8141 82.5745C42.4589 81.7375 41.94 80.9799 41.2878 80.3463C40.6356 79.7127 39.8633 79.216 39.0163 78.8852C38.1692 78.5545 37.2647 78.3965 36.3557 78.4205V78.2205C36.3561 77.3104 36.1738 76.4095 35.8196 75.5712C35.4655 74.7329 34.9466 73.9742 34.2938 73.3401C33.6411 72.7059 32.8676 72.2093 32.0194 71.8796C31.1712 71.5499 30.2654 71.3937 29.3557 71.4205V71.2205C29.3559 69.506 28.7093 67.8546 27.5452 66.5959C26.381 65.3372 24.785 64.5639 23.0757 64.4305C22.8857 63.254 22.8153 62.0612 22.8657 60.8705L22.9957 60.7405L39.8357 43.8205L40.0057 43.6405C42.6028 43.5465 45.1903 44.0067 47.5957 44.9905L38.5357 55.1005C37.6862 56.0524 37.2327 57.2929 37.268 58.5683C37.3033 59.8436 37.8248 61.0571 38.7257 61.9605C40.3805 63.6081 42.6206 64.533 44.9557 64.533C47.2908 64.533 49.5309 63.6081 51.1857 61.9605L58.0657 55.0805C58.2751 54.8747 58.557 54.7594 58.8507 54.7594C59.1443 54.7594 59.4262 54.8747 59.6357 55.0805L76.8357 72.2705C77.1238 72.5568 77.3525 72.8972 77.5086 73.2722C77.6646 73.6472 77.7449 74.0493 77.7449 74.4555C77.7449 74.8617 77.6646 75.2638 77.5086 75.6388C77.3525 76.0138 77.1238 76.3542 76.8357 76.6405C76.2549 77.2176 75.4694 77.5415 74.6507 77.5415C73.832 77.5415 73.0465 77.2176 72.4657 76.6405L61.8157 65.9905C61.4656 65.6443 60.9931 65.4501 60.5007 65.4501C60.0083 65.4501 59.5358 65.6443 59.1857 65.9905ZM38.0457 93.2705L41.3057 90.0105C41.8852 89.4297 42.6717 89.1029 43.4922 89.1019C44.3126 89.101 45.0999 89.426 45.6807 90.0055C46.2615 90.585 46.5883 91.3715 46.5893 92.192C46.5902 93.0124 46.2652 93.7997 45.6857 94.3805L42.4157 97.6405C41.8349 98.2176 41.0494 98.5415 40.2307 98.5415C39.412 98.5415 38.6265 98.2176 38.0457 97.6405C37.7575 97.3542 37.5289 97.0138 37.3728 96.6388C37.2168 96.2638 37.1364 95.8617 37.1364 95.4555C37.1364 95.0493 37.2168 94.6472 37.3728 94.2722C37.5289 93.8972 37.7575 93.5568 38.0457 93.2705ZM25.5357 71.1905C25.536 71.596 25.4558 71.9976 25.2995 72.3719C25.1433 72.7461 24.9143 73.0856 24.6257 73.3705L21.3657 76.6405C20.9332 77.061 20.3874 77.3461 19.7952 77.461C19.2031 77.5759 18.5903 77.5155 18.0319 77.2873C17.4736 77.0591 16.9939 76.6729 16.6518 76.1761C16.3096 75.6793 16.1199 75.0935 16.1057 74.4905C16.1064 74.0851 16.1872 73.6839 16.3434 73.3098C16.4995 72.9357 16.728 72.5961 17.0157 72.3105L20.2757 69.0505C20.7076 68.6306 21.2525 68.3455 21.8437 68.2303C22.435 68.1151 23.047 68.1746 23.605 68.4016C24.163 68.6286 24.6428 69.0133 24.9856 69.5086C25.3285 70.0039 25.5197 70.5883 25.5357 71.1905ZM23.9957 79.2705L27.2557 76.0105C27.8352 75.4297 28.6217 75.1029 29.4422 75.1019C30.2626 75.101 31.0499 75.426 31.6307 76.0055C32.2115 76.585 32.5383 77.3715 32.5393 78.192C32.5402 79.0124 32.2152 79.7997 31.6357 80.3805L28.3757 83.6405C27.7932 84.2182 27.0061 84.5423 26.1857 84.5423C25.3653 84.5423 24.5782 84.2182 23.9957 83.6405C23.7075 83.3542 23.4789 83.0138 23.3228 82.6388C23.1668 82.2638 23.0864 81.8617 23.0864 81.4555C23.0864 81.0493 23.1668 80.6472 23.3228 80.2722C23.4789 79.8972 23.7075 79.5568 23.9957 79.2705ZM30.9957 86.2705L34.2557 83.0105C34.8455 82.4469 35.6299 82.1324 36.4457 82.1324C37.2615 82.1324 38.0459 82.4469 38.6357 83.0105C39.2128 83.5913 39.5367 84.3768 39.5367 85.1955C39.5367 86.0142 39.2128 86.7997 38.6357 87.3805L35.3657 90.6405C34.7849 91.2176 33.9994 91.5415 33.1807 91.5415C32.362 91.5415 31.5765 91.2176 30.9957 90.6405C30.7075 90.3542 30.4789 90.0138 30.3228 89.6388C30.1668 89.2638 30.0864 88.8617 30.0864 88.4555C30.0864 88.0493 30.1668 87.6472 30.3228 87.2722C30.4789 86.8972 30.7075 86.5568 30.9957 86.2705ZM75.3257 65.4905L62.2757 52.4905C61.3686 51.5873 60.1407 51.0803 58.8607 51.0803C57.5807 51.0803 56.3528 51.5873 55.4457 52.4905L48.5357 59.3205C47.5798 60.2731 46.2852 60.808 44.9357 60.808C43.5861 60.808 42.2916 60.2731 41.3357 59.3205C41.1126 59.0878 40.9881 58.7779 40.9881 58.4555C40.9881 58.1331 41.1126 57.8232 41.3357 57.5905L53.0757 44.4905C53.7495 43.7353 54.5754 43.131 55.4991 42.7174C56.4228 42.3038 57.4236 42.0902 58.4357 42.0905H61.0257C61.3739 42.7205 61.8118 43.2965 62.3257 43.8005L79.3257 60.7405C79.4115 60.838 79.5051 60.9283 79.6057 61.0105C78.454 62.7443 77.0051 64.2609 75.3257 65.4905Z" fill="#2B2B2B"/>
<path d="M46.085 17.1907C45.7324 16.8492 45.2608 16.6582 44.77 16.6582C44.2791 16.6582 43.8075 16.8492 43.455 17.1907C43.2811 17.3628 43.1431 17.5676 43.0489 17.7933C42.9547 18.019 42.9062 18.2611 42.9062 18.5057C42.9062 18.7503 42.9547 18.9925 43.0489 19.2182C43.1431 19.4439 43.2811 19.6487 43.455 19.8207L46.455 22.8207C47.0642 23.4283 47.8896 23.7695 48.75 23.7695C49.6104 23.7695 50.4358 23.4283 51.045 22.8207L58.755 15.1107C58.9288 14.9387 59.0669 14.7339 59.161 14.5082C59.2552 14.2825 59.3037 14.0403 59.3037 13.7957C59.3037 13.5511 59.2552 13.309 59.161 13.0833C59.0669 12.8576 58.9288 12.6528 58.755 12.4807C58.4024 12.1392 57.9308 11.9482 57.44 11.9482C56.9491 11.9482 56.4775 12.1392 56.125 12.4807L48.755 19.8507L46.085 17.1907Z" fill="#2B2B2B"/>
</svg>
