<svg width="22" height="24" viewBox="0 0 22 24" fill="none" xmlns="http://www.w3.org/2000/svg">
<mask id="path-1-outside-1_77_500" maskUnits="userSpaceOnUse" x="0" y="0" width="22" height="24" fill="black">
<rect fill="white" width="22" height="24"/>
<path fill-rule="evenodd" clip-rule="evenodd" d="M21.3095 4.28842L18.1369 1.11579C18.0674 1.04632 17.9516 1 17.859 1H8.92002C8.7116 1 8.52634 1.18526 8.52634 1.39368V3.91789H6.00213C5.79371 3.91789 5.60844 4.10316 5.60844 4.31158V9.98526C5.72423 9.93895 5.86318 9.91579 6.00213 9.91579H6.39581V4.70526H8.52634V9.93895C8.89686 10.0316 9.19792 10.3095 9.31371 10.68V1.78737H16.8632V5.16842C16.8632 5.4 17.0484 5.56211 17.2569 5.56211H20.6379V16.9095H14.0379V17.6968H17.72V19.8274H13.0884C13.1579 20.0821 13.1579 20.36 13.0421 20.6147H18.1369C18.3453 20.6147 18.5305 20.4295 18.5305 20.2211V17.6968H21.0548C21.2632 17.6968 21.4484 17.5116 21.4484 17.3032V4.56632C21.4253 4.45053 21.379 4.35789 21.3095 4.28842ZM20.6379 4.77474H17.6505V1.78737H17.6969L20.6379 4.72842V4.77474ZM17.9289 13.6442H13.1352C13.112 13.8526 13.0425 14.0611 12.9036 14.2463L12.7646 14.4316H17.9289C18.1373 14.4316 18.3225 14.2463 18.3225 14.0379C18.3225 13.8295 18.1604 13.6442 17.9289 13.6442ZM17.9288 11.4905H12.0236C11.792 11.4905 11.6299 11.3053 11.6299 11.0968C11.6299 10.8884 11.8151 10.7032 12.0236 10.7032H17.9288C18.1373 10.7032 18.3225 10.8884 18.3225 11.0968C18.3225 11.3053 18.1373 11.4905 17.9288 11.4905ZM12.0236 8.52632H17.9288C18.1373 8.52632 18.3225 8.34106 18.3225 8.13264C18.3225 7.92422 18.1373 7.73895 17.9288 7.73895H12.0236C11.8151 7.73895 11.6299 7.92422 11.6299 8.13264C11.6299 8.34106 11.792 8.52632 12.0236 8.52632ZM14.432 5.5621H12.0236C11.792 5.5621 11.6299 5.4 11.6299 5.16842C11.6299 4.96 11.8151 4.77473 12.0236 4.77473H14.432C14.6404 4.77473 14.8257 4.96 14.8257 5.16842C14.8257 5.37684 14.6404 5.5621 14.432 5.5621ZM7.0902 14.3853C5.72388 14.3853 4.6123 15.4968 4.6123 16.8632C4.6123 18.2295 5.72388 19.3179 7.0902 19.3179C8.45651 19.3179 9.56809 18.2063 9.56809 16.84C9.56809 15.4968 8.45651 14.3853 7.0902 14.3853ZM7.0902 18.5305C6.16388 18.5305 5.42283 17.7895 5.42283 16.8632C5.42283 15.9368 6.16388 15.1958 7.0902 15.1958C8.01651 15.1958 8.75757 15.9368 8.75757 16.8632C8.78073 17.7663 8.01651 18.5305 7.0902 18.5305ZM13.2737 17.9516C13.2737 18.16 13.1116 18.3221 12.9263 18.3453L11.5832 18.5305L11.4674 18.8316L12.2547 19.8968C12.3705 20.0589 12.3474 20.2674 12.2084 20.4063L10.6568 21.9579C10.6453 21.9695 10.6337 21.9753 10.6221 21.9811C10.6105 21.9868 10.5989 21.9926 10.5874 22.0042C10.4716 22.0968 10.3095 22.0968 10.1705 22.0274C10.1589 22.0274 10.1532 22.0216 10.1474 22.0158C10.1416 22.01 10.1358 22.0042 10.1242 22.0042L9.05895 21.2168L8.75789 21.3326L8.57263 22.6526C8.54947 22.8611 8.36421 23 8.17895 23H5.97895C5.77053 23 5.60842 22.8379 5.58526 22.6526L5.4 21.3326L5.09895 21.2168L4.03368 22.0042C3.87158 22.12 3.66316 22.0968 3.52421 21.9579L1.97263 20.4063C1.83368 20.2674 1.81053 20.0589 1.92632 19.8968L2.78316 18.8316L2.66737 18.5305L1.34737 18.3453C1.13895 18.3221 1 18.1368 1 17.9516V15.7516C1 15.5432 1.16211 15.3811 1.34737 15.3579L2.66737 15.1726L2.78316 14.8716L1.99579 13.8063C1.88 13.6442 1.90316 13.4358 2.04211 13.2968L3.59368 11.7453C3.73263 11.6063 3.94105 11.5832 4.10316 11.6989L5.16842 12.4863L5.46947 12.3705L5.65474 11.0505C5.67789 10.8421 5.86316 10.7032 6.04842 10.7032H8.24842C8.45684 10.7032 8.61895 10.8653 8.64211 11.0505L8.82737 12.3705L9.12842 12.4863L10.1937 11.6989C10.3326 11.5832 10.5642 11.6063 10.7032 11.7453L12.2547 13.2968C12.3937 13.4358 12.4168 13.6442 12.3011 13.8063L11.5137 14.8716L11.6295 15.1726L12.9495 15.3579C13.1347 15.4042 13.2737 15.5663 13.2737 15.7516V17.9516ZM11.4211 20.1053L10.7032 19.1326C10.6105 19.0168 10.6105 18.8779 10.6568 18.7389L10.9579 18.0211C11.0042 17.9053 11.12 17.8126 11.2589 17.7895L12.4863 17.6042V16.0758L11.2821 15.8905C11.1432 15.8674 11.0274 15.7979 10.9811 15.6589L10.68 14.9411C10.6337 14.8021 10.6337 14.6632 10.7263 14.5474L11.4442 13.5747L10.3789 12.5095L9.40632 13.2274C9.29053 13.32 9.15158 13.32 9.01263 13.2737L8.29474 12.9726C8.17895 12.9263 8.08632 12.8105 8.06316 12.6716L7.87789 11.4674H6.34947L6.16421 12.6716C6.14105 12.8105 6.07158 12.9263 5.93263 12.9726L5.21474 13.2737C5.07579 13.32 4.93684 13.32 4.82105 13.2274L3.84842 12.5095L2.78316 13.5747L3.50105 14.5474C3.59368 14.6632 3.59368 14.8021 3.54737 14.9411L3.24632 15.6589C3.2 15.7747 3.08421 15.8674 2.94526 15.8905L1.74105 16.0758V17.6042L2.94526 17.7895C3.08421 17.8126 3.2 17.8821 3.24632 18.0211L3.54737 18.7389C3.59368 18.8779 3.59368 19.0168 3.50105 19.1326L2.78316 20.1053L3.82526 21.1705L4.79789 20.4526C4.91368 20.36 5.05263 20.36 5.19158 20.4063L5.90947 20.7074C6.02526 20.7537 6.11789 20.8695 6.14105 21.0084L6.32632 22.2126H7.85474L8.04 21.0084C8.06316 20.8695 8.13263 20.7537 8.27158 20.7074L8.98947 20.4063C9.12842 20.36 9.26737 20.36 9.38316 20.4526L10.3558 21.1705L11.4211 20.1053Z"/>
</mask>
<path fill-rule="evenodd" clip-rule="evenodd" d="M21.3095 4.28842L18.1369 1.11579C18.0674 1.04632 17.9516 1 17.859 1H8.92002C8.7116 1 8.52634 1.18526 8.52634 1.39368V3.91789H6.00213C5.79371 3.91789 5.60844 4.10316 5.60844 4.31158V9.98526C5.72423 9.93895 5.86318 9.91579 6.00213 9.91579H6.39581V4.70526H8.52634V9.93895C8.89686 10.0316 9.19792 10.3095 9.31371 10.68V1.78737H16.8632V5.16842C16.8632 5.4 17.0484 5.56211 17.2569 5.56211H20.6379V16.9095H14.0379V17.6968H17.72V19.8274H13.0884C13.1579 20.0821 13.1579 20.36 13.0421 20.6147H18.1369C18.3453 20.6147 18.5305 20.4295 18.5305 20.2211V17.6968H21.0548C21.2632 17.6968 21.4484 17.5116 21.4484 17.3032V4.56632C21.4253 4.45053 21.379 4.35789 21.3095 4.28842ZM20.6379 4.77474H17.6505V1.78737H17.6969L20.6379 4.72842V4.77474ZM17.9289 13.6442H13.1352C13.112 13.8526 13.0425 14.0611 12.9036 14.2463L12.7646 14.4316H17.9289C18.1373 14.4316 18.3225 14.2463 18.3225 14.0379C18.3225 13.8295 18.1604 13.6442 17.9289 13.6442ZM17.9288 11.4905H12.0236C11.792 11.4905 11.6299 11.3053 11.6299 11.0968C11.6299 10.8884 11.8151 10.7032 12.0236 10.7032H17.9288C18.1373 10.7032 18.3225 10.8884 18.3225 11.0968C18.3225 11.3053 18.1373 11.4905 17.9288 11.4905ZM12.0236 8.52632H17.9288C18.1373 8.52632 18.3225 8.34106 18.3225 8.13264C18.3225 7.92422 18.1373 7.73895 17.9288 7.73895H12.0236C11.8151 7.73895 11.6299 7.92422 11.6299 8.13264C11.6299 8.34106 11.792 8.52632 12.0236 8.52632ZM14.432 5.5621H12.0236C11.792 5.5621 11.6299 5.4 11.6299 5.16842C11.6299 4.96 11.8151 4.77473 12.0236 4.77473H14.432C14.6404 4.77473 14.8257 4.96 14.8257 5.16842C14.8257 5.37684 14.6404 5.5621 14.432 5.5621ZM7.0902 14.3853C5.72388 14.3853 4.6123 15.4968 4.6123 16.8632C4.6123 18.2295 5.72388 19.3179 7.0902 19.3179C8.45651 19.3179 9.56809 18.2063 9.56809 16.84C9.56809 15.4968 8.45651 14.3853 7.0902 14.3853ZM7.0902 18.5305C6.16388 18.5305 5.42283 17.7895 5.42283 16.8632C5.42283 15.9368 6.16388 15.1958 7.0902 15.1958C8.01651 15.1958 8.75757 15.9368 8.75757 16.8632C8.78073 17.7663 8.01651 18.5305 7.0902 18.5305ZM13.2737 17.9516C13.2737 18.16 13.1116 18.3221 12.9263 18.3453L11.5832 18.5305L11.4674 18.8316L12.2547 19.8968C12.3705 20.0589 12.3474 20.2674 12.2084 20.4063L10.6568 21.9579C10.6453 21.9695 10.6337 21.9753 10.6221 21.9811C10.6105 21.9868 10.5989 21.9926 10.5874 22.0042C10.4716 22.0968 10.3095 22.0968 10.1705 22.0274C10.1589 22.0274 10.1532 22.0216 10.1474 22.0158C10.1416 22.01 10.1358 22.0042 10.1242 22.0042L9.05895 21.2168L8.75789 21.3326L8.57263 22.6526C8.54947 22.8611 8.36421 23 8.17895 23H5.97895C5.77053 23 5.60842 22.8379 5.58526 22.6526L5.4 21.3326L5.09895 21.2168L4.03368 22.0042C3.87158 22.12 3.66316 22.0968 3.52421 21.9579L1.97263 20.4063C1.83368 20.2674 1.81053 20.0589 1.92632 19.8968L2.78316 18.8316L2.66737 18.5305L1.34737 18.3453C1.13895 18.3221 1 18.1368 1 17.9516V15.7516C1 15.5432 1.16211 15.3811 1.34737 15.3579L2.66737 15.1726L2.78316 14.8716L1.99579 13.8063C1.88 13.6442 1.90316 13.4358 2.04211 13.2968L3.59368 11.7453C3.73263 11.6063 3.94105 11.5832 4.10316 11.6989L5.16842 12.4863L5.46947 12.3705L5.65474 11.0505C5.67789 10.8421 5.86316 10.7032 6.04842 10.7032H8.24842C8.45684 10.7032 8.61895 10.8653 8.64211 11.0505L8.82737 12.3705L9.12842 12.4863L10.1937 11.6989C10.3326 11.5832 10.5642 11.6063 10.7032 11.7453L12.2547 13.2968C12.3937 13.4358 12.4168 13.6442 12.3011 13.8063L11.5137 14.8716L11.6295 15.1726L12.9495 15.3579C13.1347 15.4042 13.2737 15.5663 13.2737 15.7516V17.9516ZM11.4211 20.1053L10.7032 19.1326C10.6105 19.0168 10.6105 18.8779 10.6568 18.7389L10.9579 18.0211C11.0042 17.9053 11.12 17.8126 11.2589 17.7895L12.4863 17.6042V16.0758L11.2821 15.8905C11.1432 15.8674 11.0274 15.7979 10.9811 15.6589L10.68 14.9411C10.6337 14.8021 10.6337 14.6632 10.7263 14.5474L11.4442 13.5747L10.3789 12.5095L9.40632 13.2274C9.29053 13.32 9.15158 13.32 9.01263 13.2737L8.29474 12.9726C8.17895 12.9263 8.08632 12.8105 8.06316 12.6716L7.87789 11.4674H6.34947L6.16421 12.6716C6.14105 12.8105 6.07158 12.9263 5.93263 12.9726L5.21474 13.2737C5.07579 13.32 4.93684 13.32 4.82105 13.2274L3.84842 12.5095L2.78316 13.5747L3.50105 14.5474C3.59368 14.6632 3.59368 14.8021 3.54737 14.9411L3.24632 15.6589C3.2 15.7747 3.08421 15.8674 2.94526 15.8905L1.74105 16.0758V17.6042L2.94526 17.7895C3.08421 17.8126 3.2 17.8821 3.24632 18.0211L3.54737 18.7389C3.59368 18.8779 3.59368 19.0168 3.50105 19.1326L2.78316 20.1053L3.82526 21.1705L4.79789 20.4526C4.91368 20.36 5.05263 20.36 5.19158 20.4063L5.90947 20.7074C6.02526 20.7537 6.11789 20.8695 6.14105 21.0084L6.32632 22.2126H7.85474L8.04 21.0084C8.06316 20.8695 8.13263 20.7537 8.27158 20.7074L8.98947 20.4063C9.12842 20.36 9.26737 20.36 9.38316 20.4526L10.3558 21.1705L11.4211 20.1053Z" fill="#999999"/>
<path d="M18.1369 1.11579L17.9954 1.25721V1.25721L18.1369 1.11579ZM21.3095 4.28842L21.1681 4.42984L21.1681 4.42984L21.3095 4.28842ZM8.52634 3.91789V4.11789H8.72634V3.91789H8.52634ZM5.60844 9.98526H5.40844V10.2807L5.68272 10.171L5.60844 9.98526ZM6.39581 9.91579V10.1158H6.59581V9.91579H6.39581ZM6.39581 4.70526V4.50526H6.19581V4.70526H6.39581ZM8.52634 4.70526H8.72634V4.50526H8.52634V4.70526ZM8.52634 9.93895H8.32634V10.0951L8.47783 10.133L8.52634 9.93895ZM9.31371 10.68L9.12281 10.7397L9.51371 10.68H9.31371ZM9.31371 1.78737V1.58737H9.11371V1.78737H9.31371ZM16.8632 1.78737H17.0632V1.58737H16.8632V1.78737ZM20.6379 5.56211H20.8379V5.36211H20.6379V5.56211ZM20.6379 16.9095V17.1095H20.8379V16.9095H20.6379ZM14.0379 16.9095V16.7095H13.8379V16.9095H14.0379ZM14.0379 17.6968H13.8379V17.8968H14.0379V17.6968ZM17.72 17.6968H17.92V17.4968H17.72V17.6968ZM17.72 19.8274V20.0274H17.92V19.8274H17.72ZM13.0884 19.8274V19.6274H12.8266L12.8955 19.88L13.0884 19.8274ZM13.0421 20.6147L12.8601 20.532L12.7315 20.8147H13.0421V20.6147ZM18.5305 17.6968V17.4968H18.3305V17.6968H18.5305ZM21.4484 4.56632H21.6484V4.54651L21.6446 4.52709L21.4484 4.56632ZM17.6505 4.77474H17.4505V4.97474H17.6505V4.77474ZM20.6379 4.77474V4.97474H20.8379V4.77474H20.6379ZM17.6505 1.78737V1.58737H17.4505V1.78737H17.6505ZM17.6969 1.78737L17.8383 1.64595L17.7797 1.58737H17.6969V1.78737ZM20.6379 4.72842H20.8379V4.64558L20.7793 4.587L20.6379 4.72842ZM13.1352 13.6442V13.4442H12.9562L12.9364 13.6221L13.1352 13.6442ZM12.9036 14.2463L13.0636 14.3663L12.9036 14.2463ZM12.7646 14.4316L12.6046 14.3116L12.3646 14.6316H12.7646V14.4316ZM8.75757 16.8632H8.5575L8.55763 16.8683L8.75757 16.8632ZM12.9263 18.3453L12.9015 18.1468L12.899 18.1471L12.9263 18.3453ZM11.5832 18.5305L11.5558 18.3324L11.4389 18.3485L11.3965 18.4587L11.5832 18.5305ZM11.4674 18.8316L11.2807 18.7598L11.2413 18.8622L11.3065 18.9505L11.4674 18.8316ZM12.2547 19.8968L12.4175 19.7806L12.4156 19.778L12.2547 19.8968ZM12.2084 20.4063L12.3498 20.5477L12.3498 20.5477L12.2084 20.4063ZM10.6568 21.9579L10.5154 21.8165L10.5154 21.8165L10.6568 21.9579ZM10.6221 21.9811L10.5327 21.8022L10.5326 21.8022L10.6221 21.9811ZM10.5874 22.0042L10.7123 22.1604L10.721 22.1535L10.7288 22.1456L10.5874 22.0042ZM10.1705 22.0274L10.26 21.8485L10.2177 21.8274H10.1705V22.0274ZM10.1474 22.0158L10.0059 22.1572L10.0059 22.1572L10.1474 22.0158ZM10.1242 22.0042L10.0053 22.165L10.0583 22.2042H10.1242V22.0042ZM9.05895 21.2168L9.17783 21.056L9.08958 20.9908L8.98715 21.0302L9.05895 21.2168ZM8.75789 21.3326L8.6861 21.146L8.5762 21.1882L8.55984 21.3048L8.75789 21.3326ZM8.57263 22.6526L8.37449 22.6248L8.37386 22.6305L8.57263 22.6526ZM5.58526 22.6526L5.78374 22.6278L5.78332 22.6248L5.58526 22.6526ZM5.4 21.3326L5.59806 21.3048L5.58169 21.1882L5.4718 21.146L5.4 21.3326ZM5.09895 21.2168L5.17074 21.0302L5.06832 20.9908L4.98007 21.056L5.09895 21.2168ZM4.03368 22.0042L4.14995 22.167L4.15256 22.165L4.03368 22.0042ZM3.52421 21.9579L3.66563 21.8165L3.66563 21.8165L3.52421 21.9579ZM1.97263 20.4063L1.83121 20.5477L1.83121 20.5477L1.97263 20.4063ZM1.92632 19.8968L1.77022 19.7713L1.76357 19.7806L1.92632 19.8968ZM2.78316 18.8316L2.939 18.9569L3.01115 18.8672L2.96983 18.7598L2.78316 18.8316ZM2.66737 18.5305L2.85404 18.4587L2.81177 18.3488L2.69517 18.3325L2.66737 18.5305ZM1.34737 18.3453L1.37518 18.1471L1.36945 18.1465L1.34737 18.3453ZM1.34737 15.3579L1.37218 15.5564L1.37517 15.556L1.34737 15.3579ZM2.66737 15.1726L2.69517 15.3707L2.81177 15.3543L2.85404 15.2444L2.66737 15.1726ZM2.78316 14.8716L2.96983 14.9434L3.00922 14.841L2.94399 14.7527L2.78316 14.8716ZM1.99579 13.8063L1.83302 13.9226L1.83495 13.9252L1.99579 13.8063ZM2.04211 13.2968L1.90068 13.1554H1.90068L2.04211 13.2968ZM3.59368 11.7453L3.45226 11.6038H3.45226L3.59368 11.7453ZM4.10316 11.6989L4.22205 11.5381L4.21941 11.5362L4.10316 11.6989ZM5.16842 12.4863L5.04954 12.6472L5.13779 12.7124L5.24022 12.673L5.16842 12.4863ZM5.46947 12.3705L5.54127 12.5572L5.65117 12.5149L5.66753 12.3983L5.46947 12.3705ZM5.65474 11.0505L5.85288 11.0783L5.85351 11.0726L5.65474 11.0505ZM8.64211 11.0505L8.44363 11.0753L8.44405 11.0783L8.64211 11.0505ZM8.82737 12.3705L8.62931 12.3983L8.64567 12.5149L8.75557 12.5572L8.82737 12.3705ZM9.12842 12.4863L9.05663 12.673L9.15905 12.7124L9.2473 12.6472L9.12842 12.4863ZM10.1937 11.6989L10.3128 11.8601L10.3217 11.8526L10.1937 11.6989ZM10.7032 11.7453L10.8446 11.6038V11.6038L10.7032 11.7453ZM12.2547 13.2968L12.3962 13.1554H12.3962L12.2547 13.2968ZM12.3011 13.8063L12.4619 13.9252L12.4638 13.9226L12.3011 13.8063ZM11.5137 14.8716L11.3528 14.7527L11.2876 14.841L11.327 14.9434L11.5137 14.8716ZM11.6295 15.1726L11.4428 15.2444L11.4851 15.3543L11.6017 15.3707L11.6295 15.1726ZM12.9495 15.3579L12.998 15.1639L12.9877 15.1613L12.9773 15.1598L12.9495 15.3579ZM10.7032 19.1326L10.8642 19.0138L10.8593 19.0077L10.7032 19.1326ZM11.4211 20.1053L11.5625 20.2467L11.6842 20.125L11.582 19.9865L11.4211 20.1053ZM10.6568 18.7389L10.4724 18.6616L10.4695 18.6686L10.4671 18.6757L10.6568 18.7389ZM10.9579 18.0211L11.1424 18.0984L11.1436 18.0953L10.9579 18.0211ZM11.2589 17.7895L11.2291 17.5917L11.2261 17.5922L11.2589 17.7895ZM12.4863 17.6042L12.5162 17.802L12.6863 17.7763V17.6042H12.4863ZM12.4863 16.0758H12.6863V15.9042L12.5167 15.8781L12.4863 16.0758ZM11.2821 15.8905L11.2492 16.0878L11.2517 16.0882L11.2821 15.8905ZM10.9811 15.6589L11.1708 15.5957L11.1684 15.5886L11.1655 15.5816L10.9811 15.6589ZM10.68 14.9411L10.4903 15.0043L10.4926 15.0114L10.4956 15.0184L10.68 14.9411ZM10.7263 14.5474L10.8826 14.6724L10.8872 14.6661L10.7263 14.5474ZM11.4442 13.5747L11.6051 13.6935L11.7073 13.555L11.5856 13.4333L11.4442 13.5747ZM10.3789 12.5095L10.5204 12.3681L10.3987 12.2463L10.2602 12.3486L10.3789 12.5095ZM9.40632 13.2274L9.28746 13.0663L9.28138 13.0712L9.40632 13.2274ZM9.01263 13.2737L8.93529 13.4581L8.94224 13.461L8.94939 13.4634L9.01263 13.2737ZM8.29474 12.9726L8.37209 12.7882L8.36901 12.7869L8.29474 12.9726ZM8.06316 12.6716L7.86547 12.702L7.86588 12.7045L8.06316 12.6716ZM7.87789 11.4674L8.07557 11.437L8.04948 11.2674H7.87789V11.4674ZM6.34947 11.4674V11.2674H6.17789L6.1518 11.437L6.34947 11.4674ZM6.16421 12.6716L6.3615 12.7045L6.36188 12.702L6.16421 12.6716ZM5.93263 12.9726L5.86939 12.7829L5.86224 12.7853L5.85529 12.7882L5.93263 12.9726ZM5.21474 13.2737L5.27798 13.4634L5.28513 13.461L5.29208 13.4581L5.21474 13.2737ZM4.82105 13.2274L4.94609 13.0711L4.93982 13.0665L4.82105 13.2274ZM3.84842 12.5095L3.96719 12.3486L3.82871 12.2463L3.707 12.3681L3.84842 12.5095ZM2.78316 13.5747L2.64174 13.4333L2.52003 13.555L2.62224 13.6935L2.78316 13.5747ZM3.50105 14.5474L3.34002 14.6662L3.34488 14.6723L3.50105 14.5474ZM3.54737 14.9411L3.73181 15.0184L3.73472 15.0114L3.73711 15.0043L3.54737 14.9411ZM3.24632 15.6589L3.06185 15.5816L3.06062 15.5847L3.24632 15.6589ZM2.94526 15.8905L2.97568 16.0882L2.97814 16.0878L2.94526 15.8905ZM1.74105 16.0758L1.71064 15.8781L1.54105 15.9042V16.0758H1.74105ZM1.74105 17.6042H1.54105V17.7758L1.71064 17.8019L1.74105 17.6042ZM2.94526 17.7895L2.97815 17.5922L2.97567 17.5918L2.94526 17.7895ZM3.24632 18.0211L3.05658 18.0843L3.05896 18.0914L3.06188 18.0984L3.24632 18.0211ZM3.54737 18.7389L3.73711 18.6757L3.73472 18.6686L3.73181 18.6616L3.54737 18.7389ZM3.50105 19.1326L3.34476 19.0076L3.34014 19.0139L3.50105 19.1326ZM2.78316 20.1053L2.62224 19.9865L2.52116 20.1234L2.64019 20.2451L2.78316 20.1053ZM3.82526 21.1705L3.6823 21.3104L3.804 21.4348L3.94403 21.3314L3.82526 21.1705ZM4.79789 20.4526L4.91675 20.6137L4.92283 20.6088L4.79789 20.4526ZM5.19158 20.4063L5.26892 20.2219L5.26197 20.219L5.25483 20.2166L5.19158 20.4063ZM5.90947 20.7074L5.83212 20.8918L5.8352 20.8931L5.90947 20.7074ZM6.14105 21.0084L6.33874 20.978L6.33833 20.9755L6.14105 21.0084ZM6.32632 22.2126L6.12864 22.243L6.15473 22.4126H6.32632V22.2126ZM7.85474 22.2126V22.4126H8.02632L8.05241 22.243L7.85474 22.2126ZM8.04 21.0084L7.84271 20.9755L7.84233 20.978L8.04 21.0084ZM8.27158 20.7074L8.33483 20.8971L8.34197 20.8947L8.34892 20.8918L8.27158 20.7074ZM8.98947 20.4063L8.92623 20.2166L8.91908 20.219L8.91213 20.2219L8.98947 20.4063ZM9.38316 20.4526L9.25812 20.6089L9.26439 20.6135L9.38316 20.4526ZM10.3558 21.1705L10.237 21.3314L10.3755 21.4337L10.4972 21.3119L10.3558 21.1705ZM17.9954 1.25721L21.1681 4.42984L21.4509 4.147L18.2783 0.974368L17.9954 1.25721ZM17.859 1.2C17.8992 1.2 17.9639 1.22567 17.9954 1.25721L18.2783 0.974369C18.1709 0.866961 18.004 0.8 17.859 0.8V1.2ZM8.92002 1.2H17.859V0.8H8.92002V1.2ZM8.72634 1.39368C8.72634 1.29572 8.82206 1.2 8.92002 1.2V0.8C8.60114 0.8 8.32634 1.07481 8.32634 1.39368H8.72634ZM8.72634 3.91789V1.39368H8.32634V3.91789H8.72634ZM6.00213 4.11789H8.52634V3.71789H6.00213V4.11789ZM5.80844 4.31158C5.80844 4.21361 5.90416 4.11789 6.00213 4.11789V3.71789C5.68325 3.71789 5.40844 3.9927 5.40844 4.31158H5.80844ZM5.80844 9.98526V4.31158H5.40844V9.98526H5.80844ZM6.00213 9.71579C5.84287 9.71579 5.67792 9.74207 5.53416 9.79957L5.68272 10.171C5.77055 10.1358 5.88349 10.1158 6.00213 10.1158V9.71579ZM6.39581 9.71579H6.00213V10.1158H6.39581V9.71579ZM6.19581 4.70526V9.91579H6.59581V4.70526H6.19581ZM8.52634 4.50526H6.39581V4.90526H8.52634V4.50526ZM8.72634 9.93895V4.70526H8.32634V9.93895H8.72634ZM9.5046 10.6203C9.36765 10.1821 9.01182 9.85416 8.57485 9.74492L8.47783 10.133C8.78191 10.209 9.02818 10.4368 9.12281 10.7397L9.5046 10.6203ZM9.11371 1.78737V10.68H9.51371V1.78737H9.11371ZM16.8632 1.58737H9.31371V1.98737H16.8632V1.58737ZM17.0632 5.16842V1.78737H16.6632V5.16842H17.0632ZM17.2569 5.36211C17.1511 5.36211 17.0632 5.28193 17.0632 5.16842H16.6632C16.6632 5.51807 16.9458 5.7621 17.2569 5.7621V5.36211ZM20.6379 5.36211H17.2569V5.7621H20.6379V5.36211ZM20.8379 16.9095V5.56211H20.4379V16.9095H20.8379ZM14.0379 17.1095H20.6379V16.7095H14.0379V17.1095ZM14.2379 17.6968V16.9095H13.8379V17.6968H14.2379ZM17.72 17.4968H14.0379V17.8968H17.72V17.4968ZM17.92 19.8274V17.6968H17.52V19.8274H17.92ZM13.0884 20.0274H17.72V19.6274H13.0884V20.0274ZM13.2242 20.6975C13.3634 20.3913 13.3603 20.0639 13.2814 19.7747L12.8955 19.88C12.9556 20.1003 12.9524 20.3287 12.8601 20.532L13.2242 20.6975ZM18.1369 20.4147H13.0421V20.8147H18.1369V20.4147ZM18.3305 20.2211C18.3305 20.319 18.2348 20.4147 18.1369 20.4147V20.8147C18.4557 20.8147 18.7305 20.5399 18.7305 20.2211H18.3305ZM18.3305 17.6968V20.2211H18.7305V17.6968H18.3305ZM21.0548 17.4968H18.5305V17.8968H21.0548V17.4968ZM21.2484 17.3032C21.2484 17.4011 21.1527 17.4968 21.0548 17.4968V17.8968C21.3736 17.8968 21.6484 17.622 21.6484 17.3032H21.2484ZM21.2484 4.56632V17.3032H21.6484V4.56632H21.2484ZM21.1681 4.42984C21.2044 4.46618 21.2353 4.52054 21.2523 4.60554L21.6446 4.52709C21.6152 4.38051 21.5535 4.24961 21.4509 4.147L21.1681 4.42984ZM17.6505 4.97474H20.6379V4.57474H17.6505V4.97474ZM17.4505 1.78737V4.77474H17.8505V1.78737H17.4505ZM17.6969 1.58737H17.6505V1.98737H17.6969V1.58737ZM20.7793 4.587L17.8383 1.64595L17.5554 1.92879L20.4965 4.86984L20.7793 4.587ZM20.8379 4.77474V4.72842H20.4379V4.77474H20.8379ZM13.1352 13.8442H17.9289V13.4442H13.1352V13.8442ZM13.0636 14.3663C13.2274 14.1479 13.3075 13.9041 13.334 13.6663L12.9364 13.6221C12.9165 13.8012 12.8577 13.9742 12.7436 14.1263L13.0636 14.3663ZM12.9246 14.5516L13.0636 14.3663L12.7436 14.1263L12.6046 14.3116L12.9246 14.5516ZM17.9289 14.2316H12.7646V14.6316H17.9289V14.2316ZM18.1225 14.0379C18.1225 14.1359 18.0268 14.2316 17.9289 14.2316V14.6316C18.2477 14.6316 18.5225 14.3568 18.5225 14.0379H18.1225ZM17.9289 13.8442C18.0424 13.8442 18.1225 13.9322 18.1225 14.0379H18.5225C18.5225 13.7268 18.2785 13.4442 17.9289 13.4442V13.8442ZM12.0236 11.6905H17.9288V11.2905H12.0236V11.6905ZM11.4299 11.0968C11.4299 11.4079 11.6739 11.6905 12.0236 11.6905V11.2905C11.9101 11.2905 11.8299 11.2026 11.8299 11.0968H11.4299ZM12.0236 10.5032C11.7047 10.5032 11.4299 10.778 11.4299 11.0968H11.8299C11.8299 10.9989 11.9256 10.9032 12.0236 10.9032V10.5032ZM17.9288 10.5032H12.0236V10.9032H17.9288V10.5032ZM18.5225 11.0968C18.5225 10.778 18.2477 10.5032 17.9288 10.5032V10.9032C18.0268 10.9032 18.1225 10.9989 18.1225 11.0968H18.5225ZM17.9288 11.6905C18.2477 11.6905 18.5225 11.4157 18.5225 11.0968H18.1225C18.1225 11.1948 18.0268 11.2905 17.9288 11.2905V11.6905ZM17.9288 8.32632H12.0236V8.72632H17.9288V8.32632ZM18.1225 8.13264C18.1225 8.2306 18.0268 8.32632 17.9288 8.32632V8.72632C18.2477 8.72632 18.5225 8.45152 18.5225 8.13264H18.1225ZM17.9288 7.93895C18.0268 7.93895 18.1225 8.03467 18.1225 8.13264H18.5225C18.5225 7.81376 18.2477 7.53895 17.9288 7.53895V7.93895ZM12.0236 7.93895H17.9288V7.53895H12.0236V7.93895ZM11.8299 8.13264C11.8299 8.03467 11.9256 7.93895 12.0236 7.93895V7.53895C11.7047 7.53895 11.4299 7.81376 11.4299 8.13264H11.8299ZM12.0236 8.32632C11.9101 8.32632 11.8299 8.23837 11.8299 8.13264H11.4299C11.4299 8.44374 11.6739 8.72632 12.0236 8.72632V8.32632ZM12.0236 5.7621H14.432V5.3621H12.0236V5.7621ZM11.4299 5.16842C11.4299 5.33212 11.488 5.48306 11.5985 5.59352C11.7089 5.70399 11.8599 5.7621 12.0236 5.7621V5.3621C11.9557 5.3621 11.9098 5.33917 11.8813 5.31068C11.8528 5.2822 11.8299 5.2363 11.8299 5.16842H11.4299ZM12.0236 4.57473C11.7047 4.57473 11.4299 4.84954 11.4299 5.16842H11.8299C11.8299 5.07045 11.9256 4.97473 12.0236 4.97473V4.57473ZM14.432 4.57473H12.0236V4.97473H14.432V4.57473ZM15.0257 5.16842C15.0257 4.84954 14.7509 4.57473 14.432 4.57473V4.97473C14.53 4.97473 14.6257 5.07045 14.6257 5.16842H15.0257ZM14.432 5.7621C14.7509 5.7621 15.0257 5.4873 15.0257 5.16842H14.6257C14.6257 5.26638 14.53 5.3621 14.432 5.3621V5.7621ZM4.8123 16.8632C4.8123 15.6073 5.83434 14.5853 7.0902 14.5853V14.1853C5.61343 14.1853 4.4123 15.3864 4.4123 16.8632H4.8123ZM7.0902 19.1179C5.83188 19.1179 4.8123 18.1166 4.8123 16.8632H4.4123C4.4123 18.3424 5.61588 19.5179 7.0902 19.5179V19.1179ZM9.36809 16.84C9.36809 18.0959 8.34606 19.1179 7.0902 19.1179V19.5179C8.56697 19.5179 9.76809 18.3168 9.76809 16.84H9.36809ZM7.0902 14.5853C8.34728 14.5853 9.36809 15.6085 9.36809 16.84H9.76809C9.76809 15.3852 8.56575 14.1853 7.0902 14.1853V14.5853ZM5.22283 16.8632C5.22283 17.8999 6.05343 18.7305 7.0902 18.7305V18.3305C6.27434 18.3305 5.62283 17.679 5.62283 16.8632H5.22283ZM7.0902 14.9958C6.05343 14.9958 5.22283 15.8264 5.22283 16.8632H5.62283C5.62283 16.0473 6.27434 15.3958 7.0902 15.3958V14.9958ZM8.95757 16.8632C8.95757 15.8264 8.12697 14.9958 7.0902 14.9958V15.3958C7.90606 15.3958 8.55757 16.0473 8.55757 16.8632H8.95757ZM7.0902 18.7305C8.12405 18.7305 8.98367 17.8785 8.9575 16.858L8.55763 16.8683C8.57778 17.6542 7.90898 18.3305 7.0902 18.3305V18.7305ZM12.9511 18.5437C13.2298 18.5089 13.4737 18.2675 13.4737 17.9516H13.0737C13.0737 18.0525 12.9934 18.1353 12.9015 18.1468L12.9511 18.5437ZM11.6105 18.7287L12.9536 18.5434L12.899 18.1471L11.5558 18.3324L11.6105 18.7287ZM11.654 18.9034L11.7698 18.6023L11.3965 18.4587L11.2807 18.7598L11.654 18.9034ZM12.4156 19.778L11.6282 18.7127L11.3065 18.9505L12.0939 20.0157L12.4156 19.778ZM12.3498 20.5477C12.5545 20.3431 12.5929 20.0262 12.4175 19.7806L12.092 20.0131C12.1482 20.0917 12.1403 20.1916 12.067 20.2649L12.3498 20.5477ZM10.7983 22.0993L12.3498 20.5477L12.067 20.2649L10.5154 21.8165L10.7983 22.0993ZM10.7115 22.1599C10.7232 22.1541 10.7615 22.1361 10.7983 22.0993L10.5154 21.8165C10.5219 21.81 10.5285 21.8051 10.5335 21.802C10.5356 21.8007 10.537 21.8 10.537 21.8C10.5366 21.8002 10.5359 21.8005 10.5327 21.8022L10.7115 22.1599ZM10.7288 22.1456C10.7223 22.1521 10.7157 22.157 10.7107 22.1601C10.7086 22.1614 10.7072 22.1621 10.7073 22.1621C10.7076 22.1619 10.7083 22.1616 10.7116 22.1599L10.5326 21.8022C10.521 21.808 10.4828 21.826 10.4459 21.8628L10.7288 22.1456ZM10.0811 22.2063C10.2703 22.3009 10.5202 22.314 10.7123 22.1604L10.4624 21.848C10.4229 21.8796 10.3486 21.8928 10.26 21.8485L10.0811 22.2063ZM10.0059 22.1572C10.0138 22.1651 10.071 22.2274 10.1705 22.2274V21.8274C10.2018 21.8274 10.2329 21.8362 10.2597 21.8523C10.2805 21.8648 10.2943 21.8799 10.2888 21.8744L10.0059 22.1572ZM10.1242 22.2042C10.093 22.2042 10.0618 22.1954 10.035 22.1793C10.0142 22.1668 10.0004 22.1517 10.0059 22.1572L10.2888 21.8744C10.2809 21.8665 10.2237 21.8042 10.1242 21.8042V22.2042ZM8.94007 21.3777L10.0053 22.165L10.2431 21.8434L9.17783 21.056L8.94007 21.3777ZM8.82969 21.5193L9.13074 21.4035L8.98715 21.0302L8.6861 21.146L8.82969 21.5193ZM8.77069 22.6804L8.95595 21.3604L8.55984 21.3048L8.37457 22.6248L8.77069 22.6804ZM8.17895 23.2C8.45468 23.2 8.73578 22.9954 8.77141 22.6747L8.37386 22.6305C8.36317 22.7267 8.27374 22.8 8.17895 22.8V23.2ZM5.97895 23.2H8.17895V22.8H5.97895V23.2ZM5.38681 22.6774C5.42164 22.9561 5.66307 23.2 5.97895 23.2V22.8C5.87798 22.8 5.7952 22.7197 5.78372 22.6278L5.38681 22.6774ZM5.20194 21.3604L5.3872 22.6804L5.78332 22.6248L5.59806 21.3048L5.20194 21.3604ZM5.02715 21.4035L5.3282 21.5193L5.4718 21.146L5.17074 21.0302L5.02715 21.4035ZM4.15256 22.165L5.21783 21.3777L4.98007 21.056L3.91481 21.8434L4.15256 22.165ZM3.38279 22.0993C3.58741 22.3039 3.90435 22.3424 4.14993 22.167L3.91744 21.8415C3.83881 21.8976 3.73891 21.8898 3.66563 21.8165L3.38279 22.0993ZM1.83121 20.5477L3.38279 22.0993L3.66563 21.8165L2.11405 20.2649L1.83121 20.5477ZM1.76357 19.7806C1.58815 20.0262 1.62659 20.3431 1.83121 20.5477L2.11405 20.2649C2.04077 20.1916 2.0329 20.0917 2.08906 20.0131L1.76357 19.7806ZM2.62732 18.7062L1.77047 19.7715L2.08216 20.0222L2.939 18.9569L2.62732 18.7062ZM2.4807 18.6023L2.59649 18.9034L2.96983 18.7598L2.85404 18.4587L2.4807 18.6023ZM1.31957 18.5433L2.63957 18.7286L2.69517 18.3325L1.37517 18.1472L1.31957 18.5433ZM0.8 17.9516C0.8 18.2273 1.0046 18.5084 1.32528 18.544L1.36945 18.1465C1.2733 18.1358 1.2 18.0464 1.2 17.9516H0.8ZM0.8 15.7516V17.9516H1.2V15.7516H0.8ZM1.32256 15.1594C1.04389 15.1943 0.8 15.4357 0.8 15.7516H1.2C1.2 15.6506 1.28032 15.5678 1.37217 15.5564L1.32256 15.1594ZM2.63957 14.9746L1.31957 15.1598L1.37517 15.556L2.69517 15.3707L2.63957 14.9746ZM2.59649 14.7998L2.4807 15.1008L2.85404 15.2444L2.96983 14.9434L2.59649 14.7998ZM1.83495 13.9252L2.62232 14.9905L2.94399 14.7527L2.15662 13.6874L1.83495 13.9252ZM1.90068 13.1554C1.69607 13.36 1.65763 13.677 1.83304 13.9226L2.15854 13.6901C2.10237 13.6114 2.11025 13.5115 2.18353 13.4383L1.90068 13.1554ZM3.45226 11.6038L1.90068 13.1554L2.18353 13.4383L3.73511 11.8867L3.45226 11.6038ZM4.21941 11.5362C3.97382 11.3608 3.65688 11.3992 3.45226 11.6038L3.73511 11.8867C3.80838 11.8134 3.90828 11.8055 3.98691 11.8617L4.21941 11.5362ZM5.2873 12.3255L4.22204 11.5381L3.98428 11.8598L5.04954 12.6472L5.2873 12.3255ZM5.39768 12.1839L5.09662 12.2996L5.24022 12.673L5.54127 12.5572L5.39768 12.1839ZM5.45668 11.0227L5.27141 12.3427L5.66753 12.3983L5.8528 11.0783L5.45668 11.0227ZM6.04842 10.5032C5.77268 10.5032 5.49159 10.7078 5.45596 11.0284L5.85351 11.0726C5.8642 10.9765 5.95363 10.9032 6.04842 10.9032V10.5032ZM8.24842 10.5032H6.04842V10.9032H8.24842V10.5032ZM8.84056 11.0257C8.80573 10.7471 8.5643 10.5032 8.24842 10.5032V10.9032C8.34939 10.9032 8.43217 10.9835 8.44365 11.0753L8.84056 11.0257ZM9.02543 12.3427L8.84016 11.0227L8.44405 11.0783L8.62931 12.3983L9.02543 12.3427ZM9.20022 12.2996L8.89916 12.1839L8.75557 12.5572L9.05663 12.673L9.20022 12.2996ZM10.0748 11.5381L9.00954 12.3255L9.2473 12.6472L10.3126 11.8598L10.0748 11.5381ZM10.8446 11.6038C10.6451 11.4044 10.2971 11.3525 10.0656 11.5453L10.3217 11.8526C10.3682 11.8139 10.4833 11.8083 10.5617 11.8867L10.8446 11.6038ZM12.3962 13.1554L10.8446 11.6038L10.5617 11.8867L12.1133 13.4383L12.3962 13.1554ZM12.4638 13.9226C12.6392 13.677 12.6008 13.36 12.3962 13.1554L12.1133 13.4383C12.1866 13.5115 12.1945 13.6114 12.1383 13.6901L12.4638 13.9226ZM11.6745 14.9905L12.4619 13.9252L12.1402 13.6874L11.3528 14.7527L11.6745 14.9905ZM11.8161 15.1008L11.7004 14.7998L11.327 14.9434L11.4428 15.2444L11.8161 15.1008ZM12.9773 15.1598L11.6573 14.9746L11.6017 15.3707L12.9217 15.556L12.9773 15.1598ZM13.4737 15.7516C13.4737 15.464 13.2616 15.2298 12.998 15.1639L12.901 15.5519C13.0079 15.5786 13.0737 15.6686 13.0737 15.7516H13.4737ZM13.4737 17.9516V15.7516H13.0737V17.9516H13.4737ZM10.5422 19.2514L11.2601 20.224L11.582 19.9865L10.8641 19.0139L10.5422 19.2514ZM10.4671 18.6757C10.4087 18.8511 10.3964 19.0693 10.547 19.2576L10.8593 19.0077C10.8247 18.9644 10.8124 18.9047 10.8466 18.8022L10.4671 18.6757ZM10.7735 17.9437L10.4724 18.6616L10.8413 18.8163L11.1423 18.0984L10.7735 17.9437ZM11.2261 17.5922C11.0233 17.626 10.8463 17.7614 10.7722 17.9468L11.1436 18.0953C11.1621 18.0491 11.2167 17.9993 11.2918 17.9868L11.2261 17.5922ZM12.4565 17.4065L11.2291 17.5917L11.2888 17.9872L12.5162 17.802L12.4565 17.4065ZM12.2863 16.0758V17.6042H12.6863V16.0758H12.2863ZM11.2517 16.0882L12.4559 16.2735L12.5167 15.8781L11.3125 15.6929L11.2517 16.0882ZM10.7913 15.7222C10.8685 15.9539 11.0639 16.0569 11.2492 16.0878L11.315 15.6932C11.2224 15.6778 11.1862 15.6419 11.1708 15.5957L10.7913 15.7222ZM10.4956 15.0184L10.7966 15.7363L11.1655 15.5816L10.8644 14.8637L10.4956 15.0184ZM10.5701 14.4224C10.4195 14.6107 10.4318 14.8289 10.4903 15.0043L10.8697 14.8778C10.8356 14.7753 10.8478 14.7156 10.8825 14.6723L10.5701 14.4224ZM11.2833 13.456L10.5654 14.4286L10.8872 14.6661L11.6051 13.6935L11.2833 13.456ZM10.2375 12.6509L11.3028 13.7162L11.5856 13.4333L10.5204 12.3681L10.2375 12.6509ZM9.52509 13.3883L10.4977 12.6704L10.2602 12.3486L9.28755 13.0665L9.52509 13.3883ZM8.94939 13.4634C9.12475 13.5219 9.34299 13.5342 9.53125 13.3835L9.28138 13.0712C9.23806 13.1059 9.17841 13.1181 9.07588 13.0839L8.94939 13.4634ZM8.21739 13.1571L8.93529 13.4581L9.08998 13.0892L8.37208 12.7882L8.21739 13.1571ZM7.86588 12.7045C7.89967 12.9072 8.03512 13.0842 8.22046 13.1583L8.36901 12.7869C8.32277 12.7684 8.27296 12.7138 8.26044 12.6387L7.86588 12.7045ZM7.68022 11.4978L7.86548 12.702L8.26083 12.6412L8.07557 11.437L7.68022 11.4978ZM6.34947 11.6674H7.87789V11.2674H6.34947V11.6674ZM6.36188 12.702L6.54715 11.4978L6.1518 11.437L5.96654 12.6412L6.36188 12.702ZM5.99588 13.1624C6.22755 13.0851 6.33061 12.8898 6.36149 12.7045L5.96693 12.6387C5.9515 12.7313 5.91561 12.7675 5.86939 12.7829L5.99588 13.1624ZM5.29208 13.4581L6.00998 13.1571L5.85529 12.7882L5.13739 13.0892L5.29208 13.4581ZM4.69611 13.3835C4.88437 13.5342 5.10262 13.5219 5.27798 13.4634L5.15149 13.0839C5.04896 13.1181 4.98931 13.1059 4.94599 13.0712L4.69611 13.3835ZM3.72965 12.6704L4.70228 13.3883L4.93982 13.0665L3.96719 12.3486L3.72965 12.6704ZM2.92458 13.7162L3.98984 12.6509L3.707 12.3681L2.64174 13.4333L2.92458 13.7162ZM3.66197 14.4286L2.94407 13.456L2.62224 13.6935L3.34014 14.6661L3.66197 14.4286ZM3.73711 15.0043C3.79556 14.8289 3.80783 14.6107 3.65723 14.4224L3.34488 14.6723C3.37953 14.7156 3.39181 14.7753 3.35763 14.8778L3.73711 15.0043ZM3.43075 15.7363L3.73181 15.0184L3.36293 14.8637L3.06188 15.5816L3.43075 15.7363ZM2.97814 16.0878C3.18091 16.054 3.35788 15.9186 3.43201 15.7332L3.06062 15.5847C3.04212 15.6309 2.98751 15.6807 2.91238 15.6932L2.97814 16.0878ZM1.77146 16.2735L2.97567 16.0882L2.91485 15.6929L1.71064 15.8781L1.77146 16.2735ZM1.94105 17.6042V16.0758H1.54105V17.6042H1.94105ZM2.97567 17.5918L1.77146 17.4065L1.71064 17.8019L2.91485 17.9871L2.97567 17.5918ZM3.43605 17.9578C3.35883 17.7261 3.16344 17.6231 2.97814 17.5922L2.91238 17.9868C3.00498 18.0022 3.04117 18.0381 3.05658 18.0843L3.43605 17.9578ZM3.73181 18.6616L3.43075 17.9437L3.06188 18.0984L3.36293 18.8163L3.73181 18.6616ZM3.65723 19.2576C3.80783 19.0693 3.79556 18.8511 3.73711 18.6757L3.35763 18.8022C3.39181 18.9047 3.37953 18.9644 3.34488 19.0077L3.65723 19.2576ZM2.94407 20.224L3.66197 19.2514L3.34014 19.0139L2.62224 19.9865L2.94407 20.224ZM3.96823 21.0307L2.92612 19.9654L2.64019 20.2451L3.6823 21.3104L3.96823 21.0307ZM4.67912 20.2917L3.70649 21.0096L3.94403 21.3314L4.91667 20.6135L4.67912 20.2917ZM5.25483 20.2166C5.07947 20.1581 4.86122 20.1458 4.67296 20.2965L4.92283 20.6088C4.96615 20.5742 5.0258 20.5619 5.12833 20.5961L5.25483 20.2166ZM5.98682 20.5229L5.26892 20.2219L5.11423 20.5908L5.83213 20.8918L5.98682 20.5229ZM6.33833 20.9755C6.30454 20.7728 6.16909 20.5958 5.98375 20.5217L5.8352 20.8931C5.88144 20.9116 5.93125 20.9662 5.94377 21.0413L6.33833 20.9755ZM6.52399 22.1822L6.33873 20.978L5.94338 21.0388L6.12864 22.243L6.52399 22.1822ZM7.85474 22.0126H6.32632V22.4126H7.85474V22.0126ZM7.84233 20.978L7.65706 22.1822L8.05241 22.243L8.23767 21.0388L7.84233 20.978ZM8.20833 20.5176C7.97667 20.5949 7.8736 20.7902 7.84272 20.9755L8.23728 21.0413C8.25271 20.9487 8.2886 20.9125 8.33483 20.8971L8.20833 20.5176ZM8.91213 20.2219L8.19423 20.5229L8.34892 20.8918L9.06682 20.5908L8.91213 20.2219ZM9.5081 20.2965C9.31984 20.1458 9.10159 20.1581 8.92623 20.2166L9.05272 20.5961C9.15525 20.5619 9.2149 20.5742 9.25822 20.6088L9.5081 20.2965ZM10.4746 21.0096L9.50193 20.2917L9.26439 20.6135L10.237 21.3314L10.4746 21.0096ZM11.2796 19.9638L10.2144 21.0291L10.4972 21.3119L11.5625 20.2467L11.2796 19.9638Z" fill="#999999" mask="url(#path-1-outside-1_77_500)"/>
</svg>
