<svg width="21" height="20" viewBox="0 0 21 20" fill="none" xmlns="http://www.w3.org/2000/svg">
<path fill-rule="evenodd" clip-rule="evenodd" d="M2.25002 8.19004L1.24689 9.03984C0.936567 9.30303 0.46314 9.27518 0.188434 8.97785C-0.0862483 8.68051 -0.0571842 8.22687 0.253121 7.96365L9.00934 0.541003C9.86061 -0.180334 11.1394 -0.180334 11.9906 0.541003L20.7469 7.96365C21.0572 8.22685 21.0863 8.68051 20.8116 8.97785C20.5369 9.2752 20.0634 9.30305 19.7531 9.03984L18.75 8.19004V17.8441C18.75 18.4163 18.5128 18.9643 18.0909 19.3685C17.669 19.7727 17.0971 20 16.4999 20H4.49986C3.90267 20 3.33079 19.7727 2.90892 19.3685C2.48704 18.9643 2.24985 18.4163 2.24985 17.8441L2.25002 8.19004ZM10.0033 1.61804L3.75003 6.91901V17.8443C3.75003 18.0347 3.82878 18.218 3.96941 18.3527C4.11004 18.4875 4.30128 18.5629 4.50003 18.5629H6.75005V13.5324C6.75005 12.9602 6.98724 12.4122 7.40911 12.008C7.83099 11.6037 8.40287 11.3765 9.00006 11.3765H12.0001C12.5973 11.3765 13.1692 11.6037 13.591 12.008C14.0129 12.4122 14.2501 12.9602 14.2501 13.5324V18.5629H16.5001C16.6989 18.5629 16.8901 18.4875 17.0307 18.3527C17.1714 18.218 17.2501 18.0347 17.2501 17.8443V6.91901L10.9969 1.61804C10.7128 1.37818 10.2873 1.37818 10.0033 1.61804ZM8.25014 18.5629H12.7502V13.5324C12.7502 13.342 12.6714 13.1587 12.5308 13.024C12.3902 12.8892 12.1989 12.8138 12.0002 12.8138H9.00015C8.8014 12.8138 8.61015 12.8892 8.46953 13.024C8.32891 13.1587 8.25016 13.342 8.25016 13.5324L8.25014 18.5629Z" fill="#999999"/>
</svg>
