<svg width="13" height="16" viewBox="0 0 13 16" fill="none" xmlns="http://www.w3.org/2000/svg">
<g clip-path="url(#clip0_91_1504)">
<path d="M8.63867 7.96216C8.63867 7.37622 8.42871 6.87329 8.00879 6.45337C7.58887 6.03345 7.08594 5.82349 6.5 5.82349C5.9043 5.82349 5.39893 6.03345 4.98389 6.45337C4.56885 6.87329 4.36133 7.37622 4.36133 7.96216C4.36133 8.55786 4.56885 9.06323 4.98389 9.47827C5.39893 9.89331 5.9043 10.1008 6.5 10.1008C7.08594 10.1008 7.58887 9.89331 8.00879 9.47827C8.42871 9.06323 8.63867 8.55786 8.63867 7.96216ZM9.7959 7.96216C9.7959 8.42114 9.70801 8.85083 9.53223 9.25122C9.36621 9.65161 9.13428 10.0007 8.83643 10.2986C8.53857 10.5964 8.18945 10.8333 7.78906 11.009C7.38867 11.175 6.95898 11.2581 6.5 11.2581C6.04102 11.2581 5.61133 11.175 5.21094 11.009C4.81055 10.8333 4.46143 10.5964 4.16357 10.2986C3.86572 10.0007 3.62891 9.65161 3.45312 9.25122C3.28711 8.85083 3.2041 8.42114 3.2041 7.96216C3.2041 7.50317 3.28711 7.07349 3.45312 6.6731C3.62891 6.27271 3.86572 5.92358 4.16357 5.62573C4.46143 5.32788 4.81055 5.09595 5.21094 4.92993C5.61133 4.75415 6.04102 4.66626 6.5 4.66626C6.95898 4.66626 7.38867 4.75415 7.78906 4.92993C8.18945 5.09595 8.53857 5.32788 8.83643 5.62573C9.13428 5.92358 9.36621 6.27271 9.53223 6.6731C9.70801 7.07349 9.7959 7.50317 9.7959 7.96216ZM10.7041 4.53442C10.7041 4.74927 10.6284 4.92993 10.4771 5.07642C10.3257 5.2229 10.1426 5.29614 9.92773 5.29614C9.71289 5.29614 9.53223 5.2229 9.38574 5.07642C9.23926 4.92993 9.16602 4.74927 9.16602 4.53442C9.16602 4.31958 9.23926 4.13647 9.38574 3.98511C9.53223 3.83374 9.71289 3.75806 9.92773 3.75806C10.1426 3.75806 10.3257 3.83374 10.4771 3.98511C10.6284 4.13647 10.7041 4.31958 10.7041 4.53442ZM6.5 2.68872C6.26562 2.68872 5.97754 2.68872 5.63574 2.68872C5.28418 2.67896 4.92773 2.6814 4.56641 2.69604C4.20508 2.71069 3.8584 2.73267 3.52637 2.76196C3.19434 2.80103 2.9209 2.8645 2.70605 2.95239C2.55957 3.01099 2.42773 3.0769 2.31055 3.15015C2.19336 3.22339 2.08105 3.3186 1.97363 3.43579C1.85645 3.55298 1.76123 3.66772 1.68799 3.78003C1.61475 3.89233 1.54883 4.02173 1.49023 4.16821C1.40234 4.38306 1.33887 4.65649 1.2998 4.98853C1.26074 5.32056 1.23633 5.66724 1.22656 6.02856C1.2168 6.38989 1.21191 6.74634 1.21191 7.0979C1.22168 7.4397 1.22656 7.72778 1.22656 7.96216C1.22656 8.19653 1.22168 8.48462 1.21191 8.82642C1.21191 9.17798 1.2168 9.53442 1.22656 9.89575C1.23633 10.2571 1.26074 10.6038 1.2998 10.9358C1.33887 11.2678 1.40234 11.5413 1.49023 11.7561C1.54883 11.9026 1.61475 12.0344 1.68799 12.1516C1.76123 12.2688 1.85645 12.3811 1.97363 12.4885C2.08105 12.6057 2.19336 12.7009 2.31055 12.7742C2.42773 12.8474 2.55957 12.9133 2.70605 12.9719C2.9209 13.0598 3.19434 13.1233 3.52637 13.1624C3.8584 13.2014 4.20508 13.2258 4.56641 13.2356C4.92773 13.2454 5.28418 13.2502 5.63574 13.2502C5.97754 13.2405 6.26562 13.2356 6.5 13.2356C6.73438 13.2356 7.02246 13.2405 7.36426 13.2502C7.71582 13.2502 8.07227 13.2454 8.43359 13.2356C8.79492 13.2258 9.1416 13.2014 9.47363 13.1624C9.80566 13.1233 10.0791 13.0598 10.2939 12.9719C10.4404 12.9133 10.5698 12.8474 10.6821 12.7742C10.7944 12.7009 10.9092 12.6057 11.0264 12.4885C11.1436 12.3811 11.2388 12.2688 11.312 12.1516C11.3853 12.0344 11.4512 11.9026 11.5098 11.7561C11.5977 11.5413 11.6611 11.2678 11.7002 10.9358C11.7295 10.6038 11.7515 10.2571 11.7661 9.89575C11.7808 9.53442 11.7832 9.17798 11.7734 8.82642C11.7734 8.48462 11.7734 8.19653 11.7734 7.96216C11.7734 7.72778 11.7734 7.4397 11.7734 7.0979C11.7832 6.74634 11.7808 6.38989 11.7661 6.02856C11.7515 5.66724 11.7295 5.32056 11.7002 4.98853C11.6611 4.65649 11.5977 4.38306 11.5098 4.16821C11.4512 4.02173 11.3853 3.89233 11.312 3.78003C11.2388 3.66772 11.1436 3.55298 11.0264 3.43579C10.9092 3.3186 10.7944 3.22339 10.6821 3.15015C10.5698 3.0769 10.4404 3.01099 10.2939 2.95239C10.0791 2.8645 9.80566 2.80103 9.47363 2.76196C9.1416 2.73267 8.79492 2.71069 8.43359 2.69604C8.07227 2.6814 7.71582 2.67896 7.36426 2.68872C7.02246 2.68872 6.73438 2.68872 6.5 2.68872ZM12.9307 7.96216C12.9307 8.41138 12.9282 8.85571 12.9233 9.29517C12.9185 9.73462 12.9062 10.1741 12.8867 10.6135C12.8574 11.1311 12.772 11.6169 12.6304 12.071C12.4888 12.5251 12.2275 12.9377 11.8467 13.3088C11.4658 13.6897 11.0508 13.9534 10.6016 14.0999C10.1523 14.2463 9.66895 14.3293 9.15137 14.3489C8.71191 14.3782 8.27002 14.3928 7.82568 14.3928C7.38135 14.3928 6.93945 14.3928 6.5 14.3928C6.05078 14.3928 5.60645 14.3928 5.16699 14.3928C4.72754 14.3928 4.28809 14.3782 3.84863 14.3489C3.33105 14.3293 2.84521 14.2463 2.39111 14.0999C1.93701 13.9534 1.52441 13.6897 1.15332 13.3088C0.772461 12.9377 0.508789 12.5251 0.362305 12.071C0.21582 11.6169 0.132812 11.1311 0.113281 10.6135C0.0839844 10.1741 0.0693359 9.73462 0.0693359 9.29517C0.0693359 8.85571 0.0693359 8.41138 0.0693359 7.96216C0.0693359 7.52271 0.0693359 7.08081 0.0693359 6.63647C0.0693359 6.19214 0.0839844 5.75024 0.113281 5.31079C0.132812 4.79321 0.21582 4.30981 0.362305 3.8606C0.508789 3.41138 0.772461 2.99634 1.15332 2.61548C1.52441 2.23462 1.93701 1.97339 2.39111 1.83179C2.84521 1.69019 3.33105 1.60474 3.84863 1.57544C4.28809 1.55591 4.72754 1.5437 5.16699 1.53882C5.60645 1.53394 6.05078 1.53149 6.5 1.53149C6.93945 1.53149 7.38135 1.53394 7.82568 1.53882C8.27002 1.5437 8.71191 1.55591 9.15137 1.57544C9.66895 1.60474 10.1523 1.69019 10.6016 1.83179C11.0508 1.97339 11.4658 2.23462 11.8467 2.61548C12.2275 2.99634 12.4888 3.41138 12.6304 3.8606C12.772 4.30981 12.8574 4.79321 12.8867 5.31079C12.9062 5.75024 12.9185 6.19214 12.9233 6.63647C12.9282 7.08081 12.9307 7.52271 12.9307 7.96216Z" fill="#FFA301" fill-opacity="0.7"/>
</g>
<defs>
<clipPath id="clip0_91_1504">
<rect width="12.88" height="15" fill="white" transform="matrix(1 0 0 -1 0.0595703 15.3303)"/>
</clipPath>
</defs>
</svg>
