<svg width="23" height="19" viewBox="0 0 23 19" fill="none" xmlns="http://www.w3.org/2000/svg">
<path d="M2.3 18.6136C1.6675 18.6136 1.12604 18.3956 0.675625 17.9597C0.225208 17.5239 0 16.9998 0 16.3877V3.03264C0 2.42053 0.225208 1.89653 0.675625 1.46064C1.12604 1.02474 1.6675 0.806793 2.3 0.806793H20.7C21.3325 0.806793 21.874 1.02474 22.3244 1.46064C22.7748 1.89653 23 2.42053 23 3.03264V16.3877C23 16.9998 22.7748 17.5239 22.3244 17.9597C21.874 18.3956 21.3325 18.6136 20.7 18.6136H2.3ZM11.5 10.8231L2.3 5.25849V16.3877H20.7V5.25849L11.5 10.8231ZM11.5 8.59727L20.7 3.03264H2.3L11.5 8.59727ZM2.3 5.25849V3.03264V16.3877V5.25849Z" fill="#F7931A"/>
</svg>
