<svg width="18" height="27" viewBox="0 0 18 27" fill="none" xmlns="http://www.w3.org/2000/svg">
<path d="M9 19.5064C11.1214 17.7917 12.7232 16.1412 13.8054 14.5551C14.8875 12.969 15.4286 11.4793 15.4286 10.0861C15.4286 8.15703 14.8286 6.57091 13.6286 5.32773C12.4286 4.08455 10.8857 3.46296 9 3.46296C7.11429 3.46296 5.57143 4.08455 4.37143 5.32773C3.17143 6.57091 2.57143 8.15703 2.57143 10.0861C2.57143 11.4793 3.1125 12.969 4.19464 14.5551C5.27679 16.1412 6.87857 17.7917 9 19.5064ZM9 22.7537C5.97857 20.5245 3.72321 18.3597 2.23393 16.2591C0.744643 14.1586 0 12.1009 0 10.0861C0 7.40684 0.835714 5.20448 2.50714 3.47904C4.17857 1.75359 6.34286 0.890869 9 0.890869C11.6571 0.890869 13.8214 1.75359 15.4929 3.47904C17.1643 5.20448 18 7.40684 18 10.0861C18 12.1009 17.2554 14.1586 15.7661 16.2591C14.2768 18.3597 12.0214 20.5245 9 22.7537ZM9 12.4653C9.70714 12.4653 10.3125 12.2134 10.8161 11.7097C11.3196 11.206 11.5714 10.6005 11.5714 9.89319C11.5714 9.18587 11.3196 8.58036 10.8161 8.07665C10.3125 7.57295 9.70714 7.3211 9 7.3211C8.29286 7.3211 7.6875 7.57295 7.18393 8.07665C6.68036 8.58036 6.42857 9.18587 6.42857 9.89319C6.42857 10.6005 6.68036 11.206 7.18393 11.7097C7.6875 12.2134 8.29286 12.4653 9 12.4653ZM0 26.6118V24.0397H18V26.6118H0Z" fill="#F7931A"/>
</svg>
