<svg width="236" height="172" viewBox="0 0 236 172" fill="none" xmlns="http://www.w3.org/2000/svg">
<path d="M18.999 155H15.6738L5.625 139.253V155H2.2998V133.672H5.625L15.7031 149.448V133.672H18.999V155ZM22.5879 146.914C22.5879 145.381 22.8809 144.009 23.4668 142.798C24.0527 141.587 24.8877 140.63 25.9717 139.927C27.0654 139.214 28.3643 138.857 29.8682 138.857C31.4014 138.857 32.7148 139.214 33.8086 139.927C34.9023 140.63 35.7373 141.587 36.3135 142.798C36.8994 144.009 37.1924 145.381 37.1924 146.914V147.251C37.1924 148.774 36.8994 150.146 36.3135 151.367C35.7373 152.578 34.9023 153.535 33.8086 154.238C32.7246 154.941 31.4209 155.293 29.8975 155.293C28.3838 155.293 27.0801 154.941 25.9863 154.238C24.8926 153.535 24.0527 152.578 23.4668 151.367C22.8809 150.146 22.5879 148.774 22.5879 147.251V146.914ZM25.7959 147.251C25.7959 148.237 25.9424 149.146 26.2354 149.976C26.5283 150.806 26.9775 151.475 27.583 151.982C28.1885 152.48 28.96 152.729 29.8975 152.729C30.835 152.729 31.6064 152.48 32.2119 151.982C32.8174 151.475 33.2666 150.806 33.5596 149.976C33.8525 149.146 33.999 148.237 33.999 147.251V146.914C33.999 145.938 33.8525 145.034 33.5596 144.204C33.2666 143.364 32.8125 142.69 32.1973 142.183C31.5918 141.675 30.8154 141.421 29.8682 141.421C28.9502 141.421 28.1836 141.675 27.5684 142.183C26.9629 142.69 26.5137 143.364 26.2207 144.204C25.9375 145.034 25.7959 145.938 25.7959 146.914V147.251ZM50.6396 145.215V142.71H55.415C56.6162 142.71 57.5586 142.432 58.2422 141.875C58.9355 141.318 59.2822 140.532 59.2822 139.517C59.2822 138.403 58.96 137.598 58.3154 137.1C57.6709 136.602 56.6846 136.353 55.3564 136.353H51.5332V155H48.208V133.672H55.3564C57.6221 133.672 59.3945 134.131 60.6738 135.049C61.9629 135.967 62.6074 137.417 62.6074 139.399C62.6074 140.278 62.3877 141.079 61.9482 141.802C61.5186 142.524 60.8936 143.115 60.0732 143.574C59.2529 144.023 58.2666 144.297 57.1143 144.395L56.0303 145.215H50.6396ZM49.4824 155L51.1523 152.334H55.8984C57.168 152.334 58.1348 152.012 58.7988 151.367C59.4727 150.723 59.8096 149.873 59.8096 148.818C59.8096 148.076 59.6777 147.437 59.4141 146.899C59.1602 146.362 58.7549 145.947 58.1982 145.654C57.6514 145.361 56.9287 145.215 56.0303 145.215H51.9434V142.71H57.4219L58.1396 143.662C59.2529 143.711 60.1758 143.979 60.9082 144.468C61.6504 144.946 62.207 145.566 62.5781 146.328C62.9492 147.08 63.1348 147.905 63.1348 148.804C63.1348 150.825 62.4854 152.363 61.1865 153.418C59.8877 154.473 58.125 155 55.8984 155H49.4824ZM70.0928 155H66.8994V132.5H70.0928V155ZM73.4766 146.914C73.4766 145.381 73.7695 144.009 74.3555 142.798C74.9414 141.587 75.7764 140.63 76.8604 139.927C77.9541 139.214 79.2529 138.857 80.7568 138.857C82.29 138.857 83.6035 139.214 84.6973 139.927C85.791 140.63 86.626 141.587 87.2021 142.798C87.7881 144.009 88.0811 145.381 88.0811 146.914V147.251C88.0811 148.774 87.7881 150.146 87.2021 151.367C86.626 152.578 85.791 153.535 84.6973 154.238C83.6133 154.941 82.3096 155.293 80.7861 155.293C79.2725 155.293 77.9688 154.941 76.875 154.238C75.7812 153.535 74.9414 152.578 74.3555 151.367C73.7695 150.146 73.4766 148.774 73.4766 147.251V146.914ZM76.6846 147.251C76.6846 148.237 76.8311 149.146 77.124 149.976C77.417 150.806 77.8662 151.475 78.4717 151.982C79.0771 152.48 79.8486 152.729 80.7861 152.729C81.7236 152.729 82.4951 152.48 83.1006 151.982C83.7061 151.475 84.1553 150.806 84.4482 149.976C84.7412 149.146 84.8877 148.237 84.8877 147.251V146.914C84.8877 145.938 84.7412 145.034 84.4482 144.204C84.1553 143.364 83.7012 142.69 83.0859 142.183C82.4805 141.675 81.7041 141.421 80.7568 141.421C79.8389 141.421 79.0723 141.675 78.457 142.183C77.8516 142.69 77.4023 143.364 77.1094 144.204C76.8262 145.034 76.6846 145.938 76.6846 146.914V147.251ZM97.3535 161.255C96.7773 161.255 96.1182 161.167 95.376 160.991C94.6436 160.815 93.9258 160.532 93.2227 160.142C92.5195 159.751 91.9336 159.229 91.4648 158.574L93.0322 156.685C93.6377 157.407 94.292 157.925 94.9951 158.237C95.708 158.56 96.4258 158.721 97.1484 158.721C98.3789 158.721 99.3506 158.374 100.063 157.681C100.786 156.997 101.147 156.001 101.147 154.692V142.695L101.44 139.15H104.355V154.604C104.355 156.011 104.058 157.212 103.462 158.208C102.866 159.204 102.041 159.961 100.986 160.479C99.9414 160.996 98.7305 161.255 97.3535 161.255ZM96.8994 155.293C95.6201 155.293 94.5068 154.946 93.5596 154.253C92.6221 153.55 91.8945 152.593 91.377 151.382C90.8691 150.171 90.6152 148.794 90.6152 147.251V146.943C90.6152 145.332 90.8691 143.921 91.377 142.71C91.8848 141.489 92.6123 140.542 93.5596 139.868C94.5068 139.194 95.6299 138.857 96.9287 138.857C97.9443 138.857 98.8184 139.038 99.5508 139.399C100.293 139.761 100.913 140.278 101.411 140.952C101.919 141.626 102.319 142.437 102.612 143.384C102.905 144.321 103.115 145.371 103.242 146.533V147.705C103.086 149.219 102.759 150.547 102.261 151.689C101.772 152.822 101.089 153.706 100.21 154.341C99.3311 154.976 98.2275 155.293 96.8994 155.293ZM97.7051 152.656C98.5547 152.656 99.2529 152.476 99.7998 152.114C100.347 151.743 100.781 151.255 101.104 150.649C101.426 150.044 101.66 149.37 101.807 148.628V145.625C101.719 145.059 101.577 144.526 101.382 144.028C101.196 143.53 100.938 143.091 100.605 142.71C100.273 142.329 99.8682 142.031 99.3896 141.816C98.9209 141.592 98.3691 141.479 97.7344 141.479C96.8164 141.479 96.0693 141.729 95.4932 142.227C94.917 142.715 94.4922 143.374 94.2188 144.204C93.9453 145.034 93.8086 145.947 93.8086 146.943V147.251C93.8086 148.247 93.9404 149.155 94.2041 149.976C94.4775 150.786 94.9023 151.436 95.4785 151.924C96.0547 152.412 96.7969 152.656 97.7051 152.656ZM117.51 155H114.053L122.139 133.672H124.307L124.189 136.133L117.51 155ZM123.062 136.133L122.93 133.672H125.098L133.213 155H129.756L123.062 136.133ZM129.463 149.785H117.656V147.09H129.463V149.785ZM143.76 139.15H147.041L141.475 155H139.365L139.702 152.349L143.76 139.15ZM140.625 152.393L140.889 155H138.794L133.169 139.15H136.465L140.625 152.393ZM158.306 144.219C158.306 143.33 158.052 142.627 157.544 142.109C157.046 141.582 156.294 141.318 155.288 141.318C154.673 141.318 154.136 141.426 153.677 141.641C153.218 141.846 152.861 142.124 152.607 142.476C152.354 142.827 152.227 143.218 152.227 143.647H149.033C149.033 142.837 149.297 142.07 149.824 141.348C150.352 140.615 151.099 140.02 152.065 139.561C153.032 139.092 154.165 138.857 155.464 138.857C156.636 138.857 157.676 139.058 158.584 139.458C159.502 139.849 160.22 140.444 160.737 141.245C161.255 142.046 161.514 143.047 161.514 144.248V151.426C161.514 152.061 161.562 152.671 161.66 153.257C161.758 153.833 161.899 154.336 162.085 154.766V155H158.804C158.647 154.648 158.525 154.194 158.438 153.638C158.35 153.071 158.306 152.529 158.306 152.012V144.219ZM158.804 147.441H156.24C154.824 147.441 153.745 147.686 153.003 148.174C152.261 148.652 151.89 149.336 151.89 150.225C151.89 150.918 152.124 151.499 152.593 151.968C153.062 152.437 153.735 152.671 154.614 152.671C155.386 152.671 156.064 152.515 156.65 152.202C157.236 151.88 157.695 151.484 158.027 151.016C158.359 150.547 158.535 150.098 158.555 149.668L159.727 151.133C159.629 151.543 159.434 151.987 159.141 152.466C158.857 152.935 158.477 153.384 157.998 153.813C157.52 154.243 156.953 154.6 156.299 154.883C155.645 155.156 154.897 155.293 154.058 155.293C153.003 155.293 152.07 155.088 151.26 154.678C150.459 154.268 149.829 153.706 149.37 152.993C148.921 152.271 148.696 151.47 148.696 150.591C148.696 148.892 149.331 147.598 150.601 146.709C151.88 145.811 153.643 145.361 155.889 145.361H158.804V147.441ZM167.344 133.232C167.939 133.232 168.398 133.403 168.721 133.745C169.043 134.077 169.204 134.487 169.204 134.976C169.204 135.464 169.043 135.874 168.721 136.206C168.398 136.538 167.939 136.704 167.344 136.704C166.758 136.704 166.304 136.538 165.981 136.206C165.669 135.874 165.513 135.464 165.513 134.976C165.513 134.487 165.669 134.077 165.981 133.745C166.304 133.403 166.758 133.232 167.344 133.232ZM168.955 155H165.762V139.15H168.955V155ZM176.528 155H173.335V132.5H176.528V155ZM189.712 144.219C189.712 143.33 189.458 142.627 188.95 142.109C188.452 141.582 187.7 141.318 186.694 141.318C186.079 141.318 185.542 141.426 185.083 141.641C184.624 141.846 184.268 142.124 184.014 142.476C183.76 142.827 183.633 143.218 183.633 143.647H180.439C180.439 142.837 180.703 142.07 181.23 141.348C181.758 140.615 182.505 140.02 183.472 139.561C184.438 139.092 185.571 138.857 186.87 138.857C188.042 138.857 189.082 139.058 189.99 139.458C190.908 139.849 191.626 140.444 192.144 141.245C192.661 142.046 192.92 143.047 192.92 144.248V151.426C192.92 152.061 192.969 152.671 193.066 153.257C193.164 153.833 193.306 154.336 193.491 154.766V155H190.21C190.054 154.648 189.932 154.194 189.844 153.638C189.756 153.071 189.712 152.529 189.712 152.012V144.219ZM190.21 147.441H187.646C186.23 147.441 185.151 147.686 184.409 148.174C183.667 148.652 183.296 149.336 183.296 150.225C183.296 150.918 183.53 151.499 183.999 151.968C184.468 152.437 185.142 152.671 186.021 152.671C186.792 152.671 187.471 152.515 188.057 152.202C188.643 151.88 189.102 151.484 189.434 151.016C189.766 150.547 189.941 150.098 189.961 149.668L191.133 151.133C191.035 151.543 190.84 151.987 190.547 152.466C190.264 152.935 189.883 153.384 189.404 153.813C188.926 154.243 188.359 154.6 187.705 154.883C187.051 155.156 186.304 155.293 185.464 155.293C184.409 155.293 183.477 155.088 182.666 154.678C181.865 154.268 181.235 153.706 180.776 152.993C180.327 152.271 180.103 151.47 180.103 150.591C180.103 148.892 180.737 147.598 182.007 146.709C183.286 145.811 185.049 145.361 187.295 145.361H190.21V147.441ZM204.404 155.293C203.066 155.293 201.958 154.976 201.079 154.341C200.2 153.696 199.517 152.803 199.028 151.66C198.54 150.518 198.213 149.189 198.047 147.676V146.504C198.213 144.961 198.54 143.618 199.028 142.476C199.517 141.333 200.195 140.444 201.064 139.81C201.943 139.175 203.047 138.857 204.375 138.857C205.723 138.857 206.855 139.199 207.773 139.883C208.691 140.557 209.385 141.504 209.854 142.725C210.322 143.936 210.557 145.337 210.557 146.929V147.236C210.557 148.789 210.322 150.176 209.854 151.396C209.385 152.607 208.691 153.56 207.773 154.253C206.855 154.946 205.732 155.293 204.404 155.293ZM196.86 155V132.5H200.054V151.748L199.775 155H196.86ZM203.599 152.656C204.517 152.656 205.249 152.417 205.796 151.938C206.353 151.45 206.753 150.796 206.997 149.976C207.241 149.155 207.363 148.242 207.363 147.236V146.929C207.363 145.942 207.246 145.039 207.012 144.219C206.777 143.389 206.382 142.725 205.825 142.227C205.278 141.729 204.526 141.479 203.569 141.479C202.925 141.479 202.368 141.592 201.899 141.816C201.431 142.031 201.03 142.329 200.698 142.71C200.376 143.091 200.117 143.53 199.922 144.028C199.736 144.526 199.6 145.049 199.512 145.596V148.599C199.639 149.312 199.858 149.98 200.171 150.605C200.483 151.221 200.918 151.719 201.475 152.1C202.041 152.471 202.749 152.656 203.599 152.656ZM217.163 155H213.97V132.5H217.163V155ZM228.047 155.293C226.523 155.293 225.205 154.961 224.092 154.297C222.979 153.623 222.114 152.71 221.499 151.558C220.894 150.396 220.591 149.087 220.591 147.632V147.017C220.591 145.337 220.908 143.887 221.543 142.666C222.188 141.445 223.047 140.508 224.121 139.854C225.205 139.189 226.387 138.857 227.666 138.857C229.189 138.857 230.439 139.194 231.416 139.868C232.402 140.532 233.135 141.45 233.613 142.622C234.092 143.784 234.331 145.117 234.331 146.621V148.013H222.275V145.61H231.152V145.361C231.123 144.697 230.991 144.067 230.757 143.472C230.532 142.866 230.171 142.373 229.673 141.992C229.175 141.611 228.501 141.421 227.651 141.421C226.86 141.421 226.172 141.646 225.586 142.095C225.01 142.544 224.565 143.188 224.253 144.028C223.94 144.858 223.784 145.854 223.784 147.017V147.632C223.784 148.579 223.96 149.438 224.312 150.21C224.663 150.981 225.171 151.597 225.835 152.056C226.509 152.505 227.31 152.729 228.237 152.729C229.136 152.729 229.912 152.549 230.566 152.188C231.23 151.826 231.807 151.323 232.295 150.679L234.082 152.29C233.584 153.052 232.847 153.745 231.87 154.37C230.894 154.985 229.619 155.293 228.047 155.293Z" fill="#7B7A7F"/>
<path d="M157.551 111H79.617C79.0887 111 78.6499 110.592 78.6125 110.064L77.0028 1.07938C76.982 0.800694 77.0797 0.524109 77.271 0.320294C77.4624 0.1144 77.7286 0 78.0093 0H135.834C136.017 0 136.198 0.049929 136.354 0.145597L157.374 12.7966C157.655 12.9651 157.836 13.2604 157.859 13.5869L158.556 109.918C158.576 110.197 158.479 110.474 158.287 110.677C158.098 110.883 157.83 111 157.551 111ZM80.5549 108.985H156.467L155.885 14.2545L135.554 2.01529H79.0908L80.5549 108.985Z" fill="#7B7A7F"/>
<path d="M143.55 18.7763C143.165 18.7763 142.804 18.5538 142.635 18.1899L134.917 1.42927C134.732 1.02788 134.83 0.551594 135.16 0.256271C135.489 -0.0390518 135.974 -0.0827281 136.352 0.143963L157.372 12.7971C157.713 13.0009 157.9 13.3877 157.852 13.7829C157.805 14.178 157.53 14.5066 157.15 14.6231L143.848 18.7327C143.75 18.7618 143.65 18.7763 143.55 18.7763ZM138.118 3.55889L144.097 16.5448L154.404 13.3607L138.118 3.55889Z" fill="#7B7A7F"/>
<path d="M106.47 50.1108C106.645 52.542 104.817 54.5136 102.384 54.5136C99.9503 54.5136 97.8393 52.542 97.6646 50.1108C97.4899 47.6796 99.318 45.708 101.749 45.708C104.18 45.708 106.296 47.6796 106.47 50.1108Z" fill="#7B7A7F"/>
<path d="M135.038 50.1108C135.212 52.542 133.384 54.5136 130.951 54.5136C128.52 54.5136 126.407 52.542 126.23 50.1108C126.055 47.6796 127.883 45.708 130.317 45.708C132.75 45.7101 134.863 47.6796 135.038 50.1108Z" fill="#7B7A7F"/>
<path d="M143.097 78.6655C142.572 78.6655 142.132 78.2599 142.092 77.7296C141.583 70.6502 130.481 64.8914 117.343 64.8914C108.639 64.8914 100.826 67.4786 96.9493 71.6443C95.2252 73.4973 94.4286 75.4939 94.5784 77.584C94.6179 78.1393 94.1998 78.6218 93.6446 78.6613C93.0872 78.6967 92.6067 78.2828 92.5672 77.7275C92.378 75.0946 93.3825 72.5157 95.4726 70.2696C99.7174 65.7066 108.097 62.874 117.343 62.874C131.754 62.874 143.508 69.3358 144.103 77.5819C144.143 78.1372 143.725 78.6197 143.169 78.6592C143.144 78.6655 143.119 78.6655 143.097 78.6655Z" fill="#7B7A7F"/>
<path d="M90.2445 41.1908C89.9991 41.1908 89.7537 41.1014 89.5582 40.9225C89.1506 40.544 89.1256 39.9056 89.5041 39.4979L93.9215 34.7395C94.3 34.3298 94.9384 34.309 95.3461 34.6854C95.7537 35.0639 95.7766 35.7024 95.4001 36.11L90.9849 40.8685C90.7852 41.0827 90.5149 41.1908 90.2445 41.1908Z" fill="#7B7A7F"/>
<path d="M141.025 41.1908C140.78 41.1908 140.532 41.1014 140.337 40.9204L135.235 36.162C134.828 35.7835 134.807 35.145 135.185 34.7374C135.564 34.3297 136.202 34.3089 136.61 34.6874L141.711 39.4459C142.119 39.8244 142.14 40.4629 141.761 40.8705C141.564 41.0826 141.296 41.1908 141.025 41.1908Z" fill="#7B7A7F"/>
</svg>
