<svg width="39" height="40" viewBox="0 0 39 40" fill="none" xmlns="http://www.w3.org/2000/svg">
<path d="M0.169922 2C0.169922 0.895431 1.06535 0 2.16992 0H38.2999V40H2.16992C1.06535 40 0.169922 39.1046 0.169922 38V2Z" fill="#FFA301" fill-opacity="0.7"/>
<g clip-path="url(#clip0_91_1467)">
<path d="M18.3399 21.7663C18.1113 22.8919 17.8574 23.806 17.5781 24.5085C17.3073 25.211 16.8926 25.7695 16.334 26.1843C16.2832 25.541 16.2536 25.0205 16.2451 24.6227C16.2367 24.2249 16.2832 23.751 16.3848 23.2009C16.4863 22.6423 16.5837 22.1895 16.6768 21.8425C16.7614 21.4955 16.8714 21.068 17.0069 20.5602C17.1507 20.044 17.2565 19.6123 17.3242 19.2653C17.1126 18.8167 17.028 18.3174 17.0703 17.7673C17.1126 17.2087 17.3242 16.7474 17.7051 16.3835C18.0775 16.0195 18.5049 15.9349 18.9873 16.1296C19.3343 16.265 19.5248 16.5189 19.5586 16.8913C19.5925 17.2637 19.5375 17.6742 19.3936 18.1227C19.2412 18.5798 19.1016 19.0283 18.9746 19.4684C18.8392 19.9085 18.8223 20.2979 18.9238 20.6364C19.0169 20.9749 19.2878 21.1865 19.7363 21.2712C20.3288 21.3897 20.8535 21.2246 21.3106 20.7761C21.7676 20.3275 22.0892 19.7604 22.2754 19.0749C22.4531 18.3893 22.4997 17.6826 22.4151 16.9548C22.3304 16.2269 22.0977 15.6725 21.7168 15.2917C21.1751 14.7331 20.5192 14.4284 19.749 14.3776C18.9789 14.3268 18.2722 14.4707 17.6289 14.8093C16.9942 15.1478 16.4779 15.6556 16.0801 16.3327C15.6738 17.0098 15.5342 17.7461 15.6612 18.5417C15.695 18.7363 15.7881 18.9606 15.9404 19.2145C16.1013 19.4769 16.1944 19.68 16.2197 19.8239C16.2451 19.9762 16.169 20.2682 15.9912 20.6999C14.7302 20.4037 14.125 19.405 14.1758 17.7038C14.2097 16.5104 14.6667 15.499 15.5469 14.6696C16.4186 13.8402 17.4258 13.3535 18.5684 13.2096C19.9903 13.0573 21.2471 13.307 22.3389 13.9587C23.4307 14.6019 24.057 15.5498 24.2178 16.8024C24.4378 18.3259 24.1501 19.697 23.3545 20.9157C22.5589 22.1429 21.4671 22.7057 20.0791 22.6042C19.8845 22.5788 19.7025 22.5365 19.5332 22.4772C19.3555 22.418 19.2243 22.363 19.1397 22.3122C19.055 22.2614 18.9196 22.1683 18.7334 22.0329C18.5557 21.9059 18.4245 21.8171 18.3399 21.7663Z" fill="#230E00"/>
</g>
<defs>
<clipPath id="clip0_91_1467">
<rect width="10.13" height="13" fill="white" transform="matrix(1 0 0 -1 14.1699 26.07)"/>
</clipPath>
</defs>
</svg>
