<svg width="45" height="40" viewBox="0 0 45 40" fill="none" xmlns="http://www.w3.org/2000/svg">
<path d="M0.810547 2C0.810547 0.895431 1.70598 0 2.81055 0H44.2505V40H2.81055C1.70598 40 0.810547 39.1046 0.810547 38V2Z" fill="#FFA301" fill-opacity="0.7"/>
<g clip-path="url(#clip0_91_1473)">
<path d="M24.71 20.5192C24.792 20.5192 25.1201 20.6657 25.6943 20.9587C26.2568 21.2516 26.5557 21.4274 26.5908 21.486C26.6025 21.5212 26.6084 21.5739 26.6084 21.6442C26.6084 21.8669 26.5498 22.1188 26.4326 22.4001C26.3271 22.6579 26.0928 22.8805 25.7295 23.068C25.3545 23.2438 25.0088 23.3317 24.6924 23.3317C24.3174 23.3317 23.6846 23.1208 22.7939 22.6989C22.1377 22.4059 21.5693 22.0134 21.0889 21.5212C20.5967 21.029 20.0986 20.4079 19.5947 19.6579C19.1143 18.943 18.874 18.2927 18.874 17.7067V17.6364C18.8975 17.027 19.1494 16.4938 19.6299 16.0368C19.7822 15.8962 19.9521 15.8259 20.1396 15.8259C20.1865 15.8259 20.251 15.8317 20.333 15.8434C20.415 15.8552 20.4795 15.861 20.5264 15.861C20.6436 15.861 20.7314 15.8786 20.79 15.9137C20.8369 15.9606 20.8896 16.0544 20.9482 16.195C20.9951 16.3239 21.1006 16.6169 21.2646 17.0739C21.4404 17.5309 21.5283 17.7829 21.5283 17.8298C21.5283 17.9704 21.4111 18.1637 21.1768 18.4098C20.9424 18.6559 20.8252 18.8141 20.8252 18.8845C20.8252 18.9313 20.8428 18.9782 20.8779 19.0251C21.1123 19.5173 21.4521 19.9743 21.8975 20.3962C22.2725 20.7595 22.7822 21.0993 23.4268 21.4157C23.5088 21.4626 23.5791 21.486 23.6377 21.486C23.7432 21.486 23.9248 21.322 24.1826 20.9938C24.4404 20.6774 24.6162 20.5192 24.71 20.5192ZM22.6709 25.8454C23.5146 25.8454 24.3291 25.6755 25.1143 25.3356C25.8994 24.9958 26.5732 24.5446 27.1357 23.9821C27.6982 23.4196 28.1436 22.7516 28.4717 21.9782C28.8115 21.193 28.9814 20.3786 28.9814 19.5348C28.9814 18.6794 28.8115 17.8649 28.4717 17.0915C28.1436 16.3063 27.6982 15.6325 27.1357 15.07C26.5732 14.5075 25.8994 14.0563 25.1143 13.7165C24.3291 13.3884 23.5146 13.2243 22.6709 13.2243C21.8154 13.2243 21.001 13.3884 20.2275 13.7165C19.4424 14.0563 18.7686 14.5075 18.2061 15.07C17.6436 15.6325 17.1982 16.3063 16.8701 17.0915C16.5303 17.8649 16.3604 18.6794 16.3604 19.5348C16.3604 20.8942 16.7646 22.1247 17.5732 23.2262L16.7646 25.5641L19.208 24.7907C20.2627 25.4938 21.417 25.8454 22.6709 25.8454ZM22.6709 11.9587C23.6904 11.9587 24.6689 12.1579 25.6064 12.5563C26.5439 12.9548 27.3467 13.4938 28.0146 14.1735C28.6943 14.8532 29.2334 15.6618 29.6318 16.5993C30.042 17.5251 30.2471 18.5036 30.2471 19.5348C30.2471 20.5544 30.042 21.5329 29.6318 22.4704C29.2334 23.4079 28.6943 24.2106 28.0146 24.8786C27.3467 25.5583 26.5439 26.0973 25.6064 26.4958C24.6689 26.9059 23.6904 27.111 22.6709 27.111C21.3584 27.111 20.1338 26.7946 18.9971 26.1618L14.8135 27.4977L16.1846 23.4372C15.458 22.2419 15.0947 20.9411 15.0947 19.5348C15.0947 18.5036 15.2939 17.5251 15.6924 16.5993C16.1025 15.6618 16.6416 14.8532 17.3096 14.1735C17.9893 13.4938 18.7979 12.9548 19.7354 12.5563C20.6611 12.1579 21.6396 11.9587 22.6709 11.9587Z" fill="#230E00"/>
</g>
<defs>
<clipPath id="clip0_91_1473">
<rect width="15.44" height="18" fill="white" transform="matrix(1 0 0 -1 14.8105 28.57)"/>
</clipPath>
</defs>
</svg>
