<svg width="36" height="40" viewBox="0 0 36 40" fill="none" xmlns="http://www.w3.org/2000/svg">
<path d="M0.5 2C0.5 0.895431 1.39543 0 2.5 0H35.5V40H2.5C1.39543 40 0.5 39.1046 0.5 38V2Z" fill="#FFA301" fill-opacity="0.7"/>
<g clip-path="url(#clip0_91_1455)">
<path d="M21.5 15.5778H19.5176C19.3809 15.5778 19.2624 15.6462 19.1621 15.7829C19.0618 15.9287 19.0117 16.1019 19.0117 16.3024V17.738H21.5V19.8024H19.0117V25.9958H16.6328V19.8024H14.5V17.738H16.6328V16.5348C16.6328 15.6507 16.9062 14.9079 17.4531 14.3063C18 13.6957 18.6882 13.3903 19.5176 13.3903H21.5V15.5778Z" fill="#230E00"/>
</g>
<defs>
<clipPath id="clip0_91_1455">
<rect width="7" height="14" fill="white" transform="matrix(1 0 0 -1 14.5 26.57)"/>
</clipPath>
</defs>
</svg>
