<svg width="41" height="41" viewBox="0 0 41 41" fill="none" xmlns="http://www.w3.org/2000/svg">
<path d="M20.3787 0C14.9524 0.0321093 9.76012 2.21439 5.94012 6.06848C2.12012 9.92257 -0.0159647 15.134 8.98476e-05 20.5605C0.0161444 25.9869 2.18303 31.1856 6.02577 35.0171C9.86851 38.8485 15.0736 41 20.5 41C25.9264 41 31.1315 38.8485 34.9742 35.0171C38.817 31.1856 40.9839 25.9869 40.9999 20.5605C41.016 15.134 38.8799 9.92257 35.0599 6.06848C31.2399 2.21439 26.0476 0.0321093 20.6213 0H20.3787ZM20.3787 10.432C22.813 10.4641 25.1358 11.4577 26.8402 13.1961C28.5446 14.9345 29.4921 17.2764 29.4761 19.7109C29.4601 22.1454 28.4818 24.4747 26.7547 26.1905C25.0276 27.9063 22.6919 28.8693 20.2574 28.8693C17.8229 28.8693 15.4872 27.9063 13.7601 26.1905C12.033 24.4747 11.0547 22.1454 11.0387 19.7109C11.0226 17.2764 11.9702 14.9345 13.6746 13.1961C15.379 11.4577 17.7018 10.4641 20.1361 10.432H20.3787ZM6.7929 34.7533C8.97633 31.9229 11.6854 30.5077 14.9201 30.5077H26.0799C29.3146 30.5077 32.0237 31.9229 34.2071 34.7533C30.5093 38.2688 25.6022 40.2292 20.5 40.2292C15.3978 40.2292 10.4907 38.2688 6.7929 34.7533Z" fill="#A8A9AE"/>
</svg>
