<svg width="12" height="15" viewBox="0 0 12 15" fill="none" xmlns="http://www.w3.org/2000/svg">
<g clip-path="url(#clip0_91_1450)">
<path d="M9.10645 9.79852C9.68066 9.79852 10.1729 9.99904 10.583 10.4001C10.9932 10.8011 11.1982 11.2979 11.1982 11.8903C11.1982 12.4736 10.9932 12.9704 10.583 13.3805C10.1729 13.7907 9.68066 13.9958 9.10645 13.9958C8.52311 13.9958 8.02637 13.7907 7.61621 13.3805C7.20605 12.9704 7.00098 12.4736 7.00098 11.8903C7.00098 11.8356 7.00553 11.7718 7.01465 11.6989C7.02376 11.626 7.02832 11.5713 7.02832 11.5348L3.3916 9.34734C2.99967 9.64812 2.57129 9.79852 2.10645 9.79852C1.52311 9.79852 1.02637 9.59344 0.616211 9.18328C0.206055 8.77312 0.000976562 8.27638 0.000976562 7.69305C0.000976562 7.11883 0.206055 6.62664 0.616211 6.21648C1.02637 5.80633 1.52311 5.60125 2.10645 5.60125C2.60775 5.60125 3.03613 5.73797 3.3916 6.01141L7.02832 3.83758C7.02832 3.792 7.02376 3.73276 7.01465 3.65984C7.00553 3.58693 7.00098 3.53224 7.00098 3.49578C7.00098 2.91245 7.20605 2.4157 7.61621 2.00555C8.02637 1.59539 8.52311 1.39031 9.10645 1.39031C9.68066 1.39031 10.1729 1.59083 10.583 1.99187C10.9932 2.39292 11.1982 2.89422 11.1982 3.49578C11.1982 4.07 10.9932 4.56219 10.583 4.97234C10.1729 5.39161 9.68066 5.60125 9.10645 5.60125C8.61426 5.60125 8.19043 5.45086 7.83496 5.15008L4.1709 7.33758C4.18913 7.41049 4.19824 7.52898 4.19824 7.69305C4.19824 7.84799 4.18913 7.96193 4.1709 8.03484L7.83496 10.2087C8.1722 9.93523 8.59603 9.79852 9.10645 9.79852Z" fill="#888888"/>
</g>
<defs>
<clipPath id="clip0_91_1450">
<rect width="11.2" height="14" fill="white" transform="matrix(1 0 0 -1 0 14.57)"/>
</clipPath>
</defs>
</svg>
