<svg width="20" height="20" viewBox="0 0 20 20" fill="none" xmlns="http://www.w3.org/2000/svg">
<path d="M9.99994 0C4.47724 0 0 4.47723 0 10.0001C0 15.5231 4.47724 20 9.99994 20C15.5232 20 20 15.5231 20 10.0001C20 4.47759 15.5232 0.000477658 9.99982 0.000477658L9.99994 0ZM14.5858 14.423C14.4067 14.7167 14.0222 14.8099 13.7285 14.6295C11.3806 13.1954 8.42489 12.8706 4.94403 13.6659C4.6086 13.7423 4.27424 13.5321 4.19782 13.1966C4.12104 12.861 4.33037 12.5266 4.66663 12.4502C8.47588 11.5799 11.7434 11.9546 14.3793 13.5656C14.673 13.7459 14.7662 14.1292 14.5858 14.423ZM15.8098 11.7001C15.5841 12.0669 15.1041 12.1827 14.7375 11.957C12.0495 10.3048 7.95214 9.82631 4.77279 10.7914C4.36046 10.916 3.92496 10.6836 3.79982 10.272C3.67563 9.85963 3.90812 9.42496 4.31974 9.29957C7.95142 8.19761 12.4663 8.73139 15.5531 10.6283C15.9197 10.854 16.0355 11.3339 15.8098 11.7001ZM15.9149 8.86466C12.692 6.95032 7.37454 6.7743 4.29741 7.70825C3.80328 7.85811 3.28073 7.57916 3.13099 7.08502C2.98125 6.59064 3.25995 6.06844 3.75444 5.91821C7.28677 4.84587 13.1589 5.05305 16.8695 7.2559C17.3149 7.51969 17.4606 8.09372 17.1967 8.53758C16.934 8.98205 16.3584 9.12857 15.9154 8.86466H15.9149Z" fill="#1DB954"/>
</svg>
