<svg width="17" height="16" viewBox="0 0 17 16" fill="none" xmlns="http://www.w3.org/2000/svg">
<path d="M2.2928 16C3.55908 16 4.5856 14.9926 4.5856 13.75C4.5856 12.5074 3.55908 11.5 2.2928 11.5C1.02652 11.5 0 12.5074 0 13.75C0 14.9926 1.02652 16 2.2928 16Z" fill="#EE802F"/>
<path d="M10.6997 16H7.5636C7.5636 14.0315 6.76672 12.1435 5.34827 10.7516C3.92982 9.35959 2.00599 8.57759 0 8.57759V5.5C1.40511 5.5 2.79646 5.77159 4.09461 6.29926C5.39276 6.82694 6.57229 7.60036 7.56585 8.57538C8.55941 9.55039 9.34755 10.7079 9.88526 11.9818C10.423 13.2557 10.6997 14.6211 10.6997 16Z" fill="#EE802F"/>
<path d="M13.0435 16C13.0435 12.6052 11.6693 9.3495 9.22313 6.94903C6.77701 4.54857 3.45935 3.2 0 3.2V0C4.32418 0 8.47126 1.68571 11.5289 4.68629C14.5866 7.68687 16.3043 11.7565 16.3043 16H13.0435Z" fill="#EE802F"/>
</svg>
