<svg width="138" height="138" viewBox="0 0 138 138" fill="none" xmlns="http://www.w3.org/2000/svg">
<path d="M68.5917 0C50.3275 0.108075 32.8511 7.45331 19.9936 20.4256C7.13603 33.3979 -0.053735 50.9389 0.000302414 69.2035C0.0543398 87.4682 7.34777 104.966 20.2819 117.862C33.216 130.758 50.7354 138 69 138C87.2646 138 104.784 130.758 117.718 117.862C130.652 104.966 137.946 87.4682 138 69.2035C138.054 50.9389 130.864 33.3979 118.006 20.4256C105.149 7.45331 87.6725 0.108075 69.4083 0H68.5917ZM68.5917 35.1127C76.7852 35.2206 84.6034 38.565 90.3401 44.4161C96.0768 50.2672 99.2663 58.15 99.2123 66.3441C99.1584 74.5381 95.8656 82.3783 90.0524 88.1534C84.2392 93.9285 76.3776 97.1698 68.1834 97.1698C59.9892 97.1698 52.1277 93.9285 46.3145 88.1534C40.5013 82.3783 37.2084 74.5381 37.1545 66.3441C37.1006 58.15 40.29 50.2672 46.0267 44.4161C51.7634 38.565 59.5817 35.2206 67.7751 35.1127H68.5917ZM22.8639 116.974C30.213 107.448 39.3314 102.684 50.2189 102.684H87.7811C98.6686 102.684 107.787 107.448 115.136 116.974C102.69 128.807 86.1732 135.406 69 135.406C51.8268 135.406 35.31 128.807 22.8639 116.974Z" fill="#999999"/>
</svg>
